<svg width="276" height="276" viewBox="0 0 276 276" fill="none" xmlns="http://www.w3.org/2000/svg">
<path fill-rule="evenodd" clip-rule="evenodd" d="M51.0118 33.3768C75.1981 27.5499 116.279 32.5505 129.016 57.8197C134.972 69.6352 133.218 89.5648 125.376 100.48C121.417 105.992 117.49 109.739 111.684 113.409C103.038 118.873 96.4844 119.665 92.9589 122.11C103.525 124.629 106.54 123.409 117.436 129.9C148.815 148.591 159.926 221.265 79.452 235.251C70.4291 236.819 48.3064 237.495 41.332 234.237C42.8831 240.043 59.5671 250.983 65.2031 254.733C83.5928 266.968 106.392 273.901 129.338 275.378H147.879C156.642 274.806 165.256 273.414 173.475 271.193C191.873 266.224 216.017 254.508 230.698 239.683C238.557 231.747 244.915 225.542 251.401 216.018C255.53 209.954 265.905 192.568 266.393 186.644C258.545 186.644 252.137 185.829 244.613 185.837L198.696 185.9C190.501 186.861 182.059 186.196 176.853 187.451L176.372 183.169C177.772 182.742 186.382 181.907 188.148 181.806C190.287 181.683 198.127 180.998 199.716 180.467C201.718 174.468 200.246 80.3744 200.246 65.6433C195.669 66.0409 181.865 73.7099 167.173 73.7099C167.167 68.2614 168.186 69.5985 173.787 68.2243C191.11 63.9738 223.026 51.3372 231.706 38.2166C226.897 30.9512 203.377 16.5683 194.856 12.9528C178.917 6.18975 162.602 1.10282 143.779 1.10963H128.313C124.927 1.2661 121.304 1.68956 114.738 2.72213C105.468 4.17913 98.4744 6.60306 90.0419 9.48571C83.0343 11.8812 52.8475 26.5192 51.0118 33.3768Z" fill="#020204" stroke="black" stroke-width="0.755906" stroke-miterlimit="22.9256"/>
<path fill-rule="evenodd" clip-rule="evenodd" d="M33.2667 50.3164C46.4962 50.5965 54.4123 65.8722 46.326 77.0891C40.7803 84.7819 30.8429 86.6 22.0347 83.3288C19.0666 82.2267 17.162 80.2866 14.7824 78.4807L11.8092 83.7127C11.099 85.4762 10.182 87.7292 9.56447 89.5347C4.89373 103.195 1.94639 116.098 1 129.299V147.922C1.29934 152.17 1.80279 156.493 2.52052 160.923C3.27038 165.555 4.12156 169.885 5.35709 174.22C6.48414 178.176 7.53184 183.309 9.94242 186.713C19.9234 180.864 33.9859 181.671 39.484 192.527C45.2217 203.856 38.4695 216.187 26.0069 217.297C40.0875 238.821 88.6934 240.38 94.6673 195.611C97.5715 173.843 98.6237 132.388 68.5968 127.92C67.6331 127.777 61.8902 127.074 61.499 127.072C57.6998 127.058 52.5222 129.782 49.1558 128.808L48.4803 126.163C49.1829 125.621 48.8474 125.588 49.9514 125.081C51.7315 124.263 50.6778 124.83 52.4485 124.352C54.175 123.886 55.7294 123.377 57.4669 122.917C60.7282 122.054 63.1819 121.286 66.3473 119.697C72.3227 116.698 76.6972 114.085 80.5515 108.895C90.8549 95.0203 93.3513 44.2477 68.7957 37.3742C54.723 33.4356 35.528 41.9614 33.2667 50.3164Z" fill="#020204" stroke="black" stroke-width="0.755906" stroke-miterlimit="22.9256"/>
<path fill-rule="evenodd" clip-rule="evenodd" d="M249.986 180.467C251.747 181.055 265.682 182.561 268.009 182.611C272.358 173.215 274.658 160.019 275.269 146.48V131.452C274.856 122.168 273.688 113.339 271.884 106.136C268.753 93.6344 257.258 63.9446 249.456 58.3831C249.456 73.9196 247.91 174.247 249.986 180.467Z" fill="#020204" stroke="black" stroke-width="0.755906" stroke-miterlimit="22.9256"/>
</svg>
