<svg width="219" height="189" viewBox="0 0 219 189" fill="none" xmlns="http://www.w3.org/2000/svg">
<path fill-rule="evenodd" clip-rule="evenodd" d="M114.855 84.2005C114.855 70.0099 132.024 66.1681 132.024 86.0084C132.024 97.5401 114.855 99.1229 114.855 84.2005ZM179.915 123.96L163.65 127.574C163.266 132.194 158.652 140.397 156.422 142.032C155.488 138.024 151.298 130.718 149.192 127.574H115.759V107.695C129.304 107.695 141.399 108.664 146.169 94.7321C150.015 83.5047 147.858 68.2309 138.676 63.09C129.805 58.1229 122.266 60.8669 115.759 65.2244V61.6106C110.217 61.7335 108.639 64.3214 98.5897 64.3214C102.645 81.7276 100.397 107.156 100.397 127.574C96.091 127.574 94.6642 126.492 94.0504 130.265L93.168 138.418H100.397C100.397 156.98 97.9664 167.643 111.924 171.169C117.994 172.701 120.153 171.41 125.698 170.948C126.093 166.207 127.505 165.221 127.505 159.201H118.47L115.952 156.296L115.759 138.418H137.445L144.57 152.98C151.709 172.086 140.01 173.608 138.305 176.332C132.997 184.807 143.915 193.109 152.623 184.318C157.465 179.429 160.845 169.61 163.939 163.104L171.168 147.743C174.097 141.585 180.419 129.556 181.722 123.96H179.915Z" fill="#020204" stroke="black" stroke-width="0.755906" stroke-miterlimit="22.9256"/>
<path fill-rule="evenodd" clip-rule="evenodd" d="M70.5777 95.0438C60.59 95.0438 60.9849 79.482 64.9254 74.9334C69.4367 69.724 79.6142 72.9643 79.6142 83.2975C79.6142 89.2419 76.4466 95.0438 70.5777 95.0438ZM62.445 65.2243V61.6105C56.239 62.1272 54.1757 64.3213 46.1797 64.3213C46.4156 67.1476 47.0838 67.5309 47.0838 70.646V124.863C11.7679 124.863 13.9665 171.852 45.2769 171.852C58.9562 171.852 61.542 172.587 61.542 157.393C56.7991 157.788 37.1444 165.517 37.1444 148.358C37.1444 129.46 53.6058 141.128 56.1203 141.128C59.4376 141.128 60.4876 139.728 62.445 138.417V107.695C71.0876 107.695 82.9182 108.55 88.9141 102.537C99.9189 91.4983 95.8601 60.7065 79.6142 60.7065C65.0267 60.7065 69.5361 63.3311 62.445 65.2243Z" fill="#020204" stroke="black" stroke-width="0.755906" stroke-miterlimit="22.9256"/>
<path fill-rule="evenodd" clip-rule="evenodd" d="M19.9759 95.9476H18.1692L16.312 92.3597C17.8264 90.1461 19.0091 88.7193 22.687 88.7193H25.3976C25.3039 92.9327 24.0744 95.9476 19.9759 95.9476ZM1 94.8626V89.4245C2.42602 82.8266 9.46657 76.9719 26.3017 76.9719C24.7498 73.7381 26.4638 74.0411 23.5313 72.47C15.6676 68.2577 9.98955 84.2198 2.80694 70.646C3.94042 65.7814 4.24364 65.0088 8.5096 62.7944C11.4701 61.2565 14.0881 59.8025 18.1692 59.8025C47.1102 59.8025 41.6628 78.4062 41.6628 106.791C38.9563 107.422 34.9155 108.75 30.6156 106.091C28.2239 104.612 28.8472 103.234 26.3017 101.369C25.5674 103.398 25.7615 102.738 24.3934 103.98C21.8607 106.278 17.9791 107.695 14.5545 107.695C8.33111 107.695 2.3406 101.614 1 94.8626Z" fill="#020204" stroke="black" stroke-width="0.755906" stroke-miterlimit="22.9256"/>
<path fill-rule="evenodd" clip-rule="evenodd" d="M190.76 77.8759C192.021 73.1489 197.639 72.0135 203.41 73.3572C203.325 77.1439 203.703 77.6783 199.873 77.9527C197.376 78.1311 193.437 77.8759 190.76 77.8759ZM172.688 84.2006C172.688 98.0397 181.871 105.354 194.348 106.819C201.195 107.623 200.79 106.791 207.928 106.791C209.192 91.6085 213.678 95.044 202.507 95.044C197.807 95.044 192.092 94.6128 190.76 89.6223C204.591 89.6223 217.868 91.6062 217.868 74.2612C217.868 70.0923 214.308 66.0665 211.736 64.1283C198.147 53.8956 172.688 63.0677 172.688 84.2006Z" fill="#020204" stroke="black" stroke-width="0.755906" stroke-miterlimit="22.9256"/>
<path fill-rule="evenodd" clip-rule="evenodd" d="M151.904 1.06787C138.034 1.06787 124.861 7.65823 116.815 18.3876C110.75 26.4731 103.786 43.6839 107.95 45.9539C108.843 46.4415 115.425 45.1909 117.051 44.8299C124.753 43.1246 133.096 38.3208 138.592 32.9365C140.65 30.9205 141.797 29.3581 143.539 27.0397C149.001 19.774 151.904 11.0231 151.904 1.06787Z" fill="#020204" stroke="black" stroke-width="0.755906" stroke-miterlimit="22.9256"/>
<path fill-rule="evenodd" clip-rule="evenodd" d="M151 42.6348C154.362 49.6401 152.806 79.6976 152.806 92.3329C152.806 110.44 149.995 107.695 165.457 107.695C169.621 107.695 168.168 101.058 168.168 93.2369V39.02C162.617 40.3134 157.741 42.0731 151 42.6348Z" fill="#020204" stroke="black" stroke-width="0.755906" stroke-miterlimit="22.9256"/>
<path fill-rule="evenodd" clip-rule="evenodd" d="M72.385 151.972V170.948H86.842V125.767C82.0961 126.162 82.6392 127.614 73.2207 128.459C67.02 129.016 71.242 127.985 71.5247 134.754L72.385 151.972Z" fill="#020204" stroke="black" stroke-width="0.755906" stroke-miterlimit="22.9256"/>
<path fill-rule="evenodd" clip-rule="evenodd" d="M70.5781 116.731C70.5781 127.81 88.6511 129.255 88.6511 116.731C88.6511 104.707 70.5781 106.015 70.5781 116.731Z" fill="#020204" stroke="black" stroke-width="0.755906" stroke-miterlimit="22.9256"/>
<path fill-rule="evenodd" clip-rule="evenodd" d="M160.942 118.539C160.942 114.572 162.026 114.455 164.556 113.117C175.088 118.69 160.942 124.568 160.942 118.539ZM158.23 111.309V128.478H160.942V123.056C175.498 126.541 173.209 109.163 162.905 111.408C159.73 112.101 162.539 111.667 158.23 111.309Z" fill="#020204" stroke="black" stroke-width="0.755906" stroke-miterlimit="22.9256"/>
<path fill-rule="evenodd" clip-rule="evenodd" d="M137.447 118.539C137.447 111.095 143.771 111.159 143.771 118.539C143.771 122.393 137.447 122.393 137.447 118.539ZM133.832 117.635C133.832 120.312 136.229 122.142 137.447 123.96H143.771C144.989 122.142 147.386 120.312 147.386 117.635C147.386 114.06 144.578 111.079 140.899 110.869C139.888 110.811 137.313 111.455 136.072 112.64C135.318 113.362 133.832 116.396 133.832 117.635Z" fill="#020204" stroke="black" stroke-width="0.755906" stroke-miterlimit="22.9256"/>
<path fill-rule="evenodd" clip-rule="evenodd" d="M121.184 116.731C121.184 120.836 123.113 121.445 124.797 123.961C132.665 123.961 132.041 124.58 132.93 121.249C126.109 121.249 124.797 122.56 124.797 116.731C124.797 114.986 126.409 113.117 127.508 113.117C131.661 113.117 131.463 117.708 132.93 112.213C126.799 109.271 121.184 112.157 121.184 116.731Z" fill="#020204" stroke="black" stroke-width="0.755906" stroke-miterlimit="22.9256"/>
<path fill-rule="evenodd" clip-rule="evenodd" d="M179.916 123.96C181.693 121.306 181.723 122.162 181.723 117.635C178.389 116.035 177.623 117.056 175.399 114.02C177.951 112.796 177.996 113.362 180.82 114.02V111.309C176.28 111.309 176.133 111.41 172.688 112.213V116.731C174.407 117.882 172.913 117.186 174.315 117.814C178.624 119.741 178.039 117.605 179.012 121.249C175.211 121.249 175.362 121.63 172.688 120.346L173.701 123.925L179.916 123.96Z" fill="#020204" stroke="black" stroke-width="0.755906" stroke-miterlimit="22.9256"/>
<path fill-rule="evenodd" clip-rule="evenodd" d="M149.191 123.96H151.902C151.902 119.087 151.278 115.393 156.421 114.02V111.309C155.367 111.332 152.868 111.662 152.633 111.669C151.627 111.694 151.416 111.495 149.191 111.309V123.96Z" fill="#020204" stroke="black" stroke-width="0.755906" stroke-miterlimit="22.9256"/>
<path fill-rule="evenodd" clip-rule="evenodd" d="M215.156 57.9959C214.105 59.2541 216.787 58.8146 213.254 58.8902C208.611 58.9884 211.916 58.8369 210.638 57.9959C207.752 55.9916 207.922 54.5632 210.638 52.5741C212.297 51.3189 208.588 51.7641 212.54 51.6798C217.061 51.5835 214.001 51.701 215.156 52.5741L216.358 56.4856C215.298 58.0193 215.86 57.186 215.156 57.9959ZM207.023 55.2849C211.16 63.1028 211.985 61.9342 217.867 57.9959V52.5741C213.603 49.719 211.305 47.194 207.023 55.2849Z" fill="#020204" stroke="black" stroke-width="0.755906" stroke-miterlimit="22.9256"/>
<path fill-rule="evenodd" clip-rule="evenodd" d="M212.448 54.3813C212.448 52.1986 213.904 54.0706 213.025 54.3813C213.013 54.3855 212.448 56.9714 212.448 54.3813ZM210.641 57.9961C214.152 57.2523 211.646 57.2523 215.158 57.9961C214.162 55.5862 215.063 56.8303 215.158 52.5742H210.641V57.9961Z" fill="#020204" stroke="black" stroke-width="0.755906" stroke-miterlimit="22.9256"/>
</svg>
