<svg width="482" height="503" viewBox="0 0 482 503" fill="none" xmlns="http://www.w3.org/2000/svg">
<path fill-rule="evenodd" clip-rule="evenodd" d="M481.241 349.152C480.523 348.494 477.188 346.924 476.125 346.325L465.77 340.705C460.34 337.951 455.497 334.916 449.983 332.071C447.758 330.923 440.895 326.685 439.064 326.444C438.792 327.482 438.292 328.42 437.833 329.398C437.381 330.362 436.954 331.386 436.428 332.483C429.228 347.515 419.823 363.822 409.553 376.977L406.195 381.37C405.95 381.655 405.881 381.704 405.632 381.997C405.246 382.451 405.082 382.712 404.726 383.196L395.408 394.06C394.638 394.859 393.82 395.491 393.175 396.309C391.802 398.051 390.352 399.297 388.795 400.849L379.62 409.507C376.247 412.229 373.121 415.159 369.865 417.613C366.595 420.078 363.122 422.839 359.543 425.128C357.815 426.234 356.161 427.486 354.198 428.707L345.818 433.675C326.695 444.652 306.436 452.064 283.298 455.953C273.253 457.642 261.649 458.801 250.697 458.8C248.102 458.8 244.28 459.007 241.913 458.697L233.315 458.328C225.25 458.352 209.755 455.691 201.596 454.348C180.308 450.844 154.452 441.233 135.821 430.918C124.636 424.725 113.951 417.525 103.884 409.328L96.6705 403.154C92.222 399.714 95.5794 399.558 88.3023 402.545L75.8097 407.883C74.6116 408.401 73.8844 408.729 72.6924 409.209C71.642 409.632 70.5343 410.241 69.4383 410.511L69.4405 375.212C69.4647 372.323 69.1536 372.893 67.7865 370.992C66.8632 369.707 66.2494 368.739 65.3918 367.513C62.0095 362.678 59.131 358.165 56.2914 353.124L50.1891 341.628C49.4547 340.177 48.9645 338.967 48.2332 337.493C47.8825 336.786 47.5982 336.202 47.3412 335.546L44.6049 329.344C43.3561 326.405 42.3628 323.596 41.3227 320.926C36.6074 308.822 33.9847 296.624 31.3538 283.95C29.4818 274.933 28.0433 261.627 27.8846 251.935C27.8661 250.823 27.6713 250.384 27.6453 249.369L27.6537 240.439C27.6537 225.594 28.7618 211.743 31.4267 197.273C32.6615 190.57 34.0542 184.372 35.7705 177.879C42.235 153.422 51.9934 132.061 64.5264 112.497C69.1563 105.27 73.9612 98.7345 79.3307 92.0821L84.7423 85.7399C88.5928 80.9338 94.8301 75.071 99.0757 70.7446L105.221 65.1453C108.29 62.8591 110.653 60.3804 113.687 58.0912C118.766 54.2568 123.195 50.6885 128.557 47.1429L143.075 38.1928C148.256 35.258 153.141 32.8056 158.499 30.1436C161.137 28.8329 164.093 27.5858 166.704 26.3945C169.266 25.2259 172.392 24.0725 175.065 23.0059C196.485 14.4574 218.452 9.71893 241.818 7.3333C250.553 6.44095 266.706 5.59724 275.823 6.11617C276.891 6.17702 277.101 6.36492 278.396 6.36568C284.762 6.36984 291.31 7.10623 297.728 7.92828C304.482 8.79379 311.337 9.67919 317.974 11.1562C319.523 11.5013 321.186 11.8562 322.786 12.1525C323.918 12.3623 326.94 13.325 327.719 12.9093C325.673 11.9584 321.586 11.0948 319.03 10.3162C316.08 9.41778 313.202 8.66669 309.967 7.89491C306.771 7.13258 303.926 6.41478 300.573 5.78133C297.328 5.16829 294.236 4.44432 290.844 4.00967C284.339 3.17553 276.876 1.71792 270.187 1.62532C266.544 1.57506 263 1.15259 259.15 1.15259C255.315 1.15259 251.48 1.15259 247.645 1.15259C215.881 1.15221 181.228 8.79036 152.476 21.0757C147.272 23.2996 142 25.7493 136.808 28.4169C126.886 33.5147 117.059 39.0395 108.048 45.6654C101.506 50.476 94.551 55.2819 88.6167 60.7596L79.5859 68.8519C78.4694 69.9121 77.7641 70.68 76.656 71.8002L70.9009 77.5501C62.2961 86.4486 54.7106 95.7227 47.5865 105.662C39.4311 117.04 32.3304 129.29 26.1361 141.742C18.8246 156.441 13.1274 172.037 8.99491 187.977L7.83227 192.463C7.50231 194.086 7.10619 195.652 6.74373 197.24C-0.852361 230.537 -0.802831 269.251 6.23276 301.512C8.55717 312.171 12.1418 327.004 16.3643 337.399L19.5466 345.745C24.3043 357.456 31.8024 373.242 38.7665 383.834C40.3426 386.232 41.6768 388.468 43.1985 390.871C47.9028 398.3 57.0713 410.375 63.1211 416.982L67.0998 421.441C67.6312 422.098 67.9498 422.461 68.5492 423.062C69.0549 423.569 69.4189 423.859 69.951 424.478C70.4541 425.065 70.7406 425.504 71.2361 426.004C74.1693 428.962 76.8018 431.987 80.0375 434.598L86.0447 440.082C87.9859 441.699 90.0294 443.751 92.2124 445.435L105.151 455.495C109.545 458.759 114.129 461.828 118.916 464.729C126.379 469.252 133.394 473.063 141.111 477.041C152.043 482.676 166.453 487.969 178.291 491.507C197.191 497.155 222.646 501.793 242.949 501.789C257.881 501.785 271.734 501.788 286.466 499.5C296.941 497.874 305.028 496.381 315.372 493.894C327.221 491.046 338.485 486.883 349.716 482.214C354.993 480.019 360.356 477.432 365.349 474.857L372.899 470.867C383.253 465.554 401.865 452.517 410.99 444.412L425.363 431.297C427.335 429.337 429.147 427.608 431.087 425.509L436.601 419.539C437.471 418.689 438.46 417.551 439.255 416.542C440.09 415.481 441.116 414.433 441.967 413.388L447.127 407.045C452.426 400.439 457.219 393.923 461.568 386.968C465.181 381.19 469.057 375.061 472.215 368.948C472.876 367.667 473.433 366.301 474.178 365.067C475.885 362.246 481.16 350.871 481.241 349.152Z" fill="#020204" stroke="black" stroke-width="0.755906" stroke-miterlimit="22.9256"/>
<path fill-rule="evenodd" clip-rule="evenodd" d="M324.574 402.769L335.174 395.118C336.272 394.387 336.704 393.93 337.684 393.18C337.908 393.009 338.006 392.938 338.216 392.781C338.271 392.74 338.437 392.62 338.492 392.578C338.534 392.546 338.589 392.505 338.63 392.473L349.715 382.664C350.091 382.288 350.393 381.903 350.746 381.577L357.81 373.834C361.019 370.238 362.082 368.315 364.925 364.766L376.41 345.942C377.453 344.202 378.263 341.615 379.264 339.907C380.342 338.068 381.116 335.287 381.875 333.336C382.561 331.573 384.428 329.268 386.027 328.35C387.082 327.744 389.794 327.574 390.996 327.96C392.957 328.589 395.9 331.999 394.207 336.266L392.059 340.967C391.774 341.59 391.579 341.84 391.24 342.48C390.136 344.565 389.117 346.192 388.01 348.147L386.33 350.967C385.334 352.883 384.881 353.079 384.079 354.308C384.052 354.351 384.018 354.411 383.991 354.454L383.817 354.761C381.928 357.849 375.255 366.164 372.632 368.939L368.149 373.623C367.409 374.205 367.707 373.784 367.02 374.599C366.701 374.978 366.882 374.828 366.465 375.225C366.166 375.511 366.137 375.504 365.823 375.757C364.595 376.748 365.33 376.429 363.225 378.108L362.376 378.876C361.953 379.305 361.703 379.544 361.199 380.049C360.525 380.726 359.396 381.515 358.635 382.18L353.553 386.052C352.116 386.907 352.076 387.549 349.647 388.937C349.079 389.262 346.138 391.505 344.301 392.509L338.585 395.954C338.135 396.287 337.631 396.552 337.12 396.823L328.101 401.41C326.973 401.918 325.853 402.616 324.574 402.769ZM230.504 426.885C237.135 427.282 245.129 427.828 251.648 427.369C253.545 427.236 255.572 427.472 257.468 427.277C259.184 427.102 261.322 427.009 263.126 426.869C270.396 426.307 277.306 425.309 284.078 424.086L293.746 421.977C297.102 421.063 300.04 420.562 303.219 419.529L316.402 415.338C316.45 415.314 316.51 415.282 316.559 415.258L321.185 413.551C323.63 412.709 325.757 411.989 327.937 410.885L343.738 403.435L353.179 397.901C353.322 397.811 353.47 397.736 353.631 397.64C356.545 395.898 359.41 394.245 362.073 392.184C364.92 389.979 367.824 388.076 370.594 385.694L390.337 366.71L398.172 356.68C398.348 356.418 398.52 356.151 398.725 355.832L401.913 351.249C403.697 348.494 405.902 345.122 407.394 342.196L408.495 340.242C410.216 337.186 412.978 331.003 414.18 327.824C414.751 326.315 415.132 324.863 415.729 323.519C416.883 320.921 418.128 316.897 418.23 313.938C418.275 312.635 418.184 311.391 417.622 310.211C415.91 306.618 410.571 307.689 407.222 308.693C404.112 309.625 400.722 310.116 397.604 311.048C393.741 312.203 390.425 312.684 387.966 313.39L386.923 313.747C379.525 315.749 371.91 317.48 364.58 319.583C363.697 319.836 363.177 320.037 362.199 320.252C361.278 320.454 360.756 320.726 359.88 320.947L295.349 339.605C293.962 340.122 292.453 340.622 291.076 341.137C290.157 341.48 289.419 341.397 288.574 341.723C287.993 341.947 286.91 342.485 286.49 342.605L260.39 350.676C259.462 351.027 260.326 350.846 259.333 351.2C257.808 351.744 256.194 351.991 254.727 352.506C253.196 353.044 251.685 353.682 250.233 354.114L248.213 354.86C247.505 355.137 246.568 355.286 245.818 355.56L232.526 360.094C230.931 360.63 229.855 361.053 228.073 361.571C227.716 361.675 227.299 361.792 226.962 361.887C225.546 362.288 226.792 361.925 225.884 362.363L210.379 367.811C208.982 368.183 207.222 369.121 205.906 369.429C204.491 369.76 203.138 370.482 201.689 371.049L169.337 383.394C168.59 383.625 168.196 384.006 167.312 384.338C166.486 384.649 166.081 384.847 165.32 385.176C164.495 385.531 163.978 385.675 163.101 386.036L154.76 389.634C150.939 391.373 150.622 396.169 153.795 399.092C155.199 400.385 156.524 402.363 158.341 403.689L160.014 404.849C162.834 407.101 166.13 408.683 169.186 410.475C171.791 412.003 174.346 413.125 177.27 414.379C178.598 414.949 180.212 415.778 181.58 416.172C183.078 416.603 184.466 417.173 185.901 417.716C193.478 420.58 201.19 422.166 209.489 423.962C212.441 424.6 216.705 425.419 219.706 425.684C223.149 425.988 227.071 426.688 230.504 426.885Z" fill="#020204" stroke="black" stroke-width="0.755906" stroke-miterlimit="22.9256"/>
<path fill-rule="evenodd" clip-rule="evenodd" d="M180.305 50.7348C179.907 51.6154 176.733 53.6387 175.741 54.4127L171.181 58.0901C170.273 58.7546 169.876 59.2391 169.031 59.9273L162.676 66.0132C160.477 67.9869 158.082 71.2595 156.339 73.0517C156.304 73.0873 156.252 73.1342 156.217 73.1701L146.001 86.3982C144.707 88.8485 144.455 88.8775 143.665 90.1901L135.787 105.358L132.284 113.96C131.92 115.376 131.651 115.812 131.327 117.285L129.21 123.388C128.142 124.953 124.593 125.458 123.06 123.64C121.535 121.832 121.696 118.849 122.263 116.662L123.561 111.832C124.063 110.442 123.953 111.262 124.327 110.591L125.417 107.663C126.429 105.118 129.595 99.1344 131.058 96.8447C131.171 96.6679 131.315 96.4344 131.426 96.2734L137.236 87.7278C137.547 87.2331 137.377 87.462 137.696 87.0398L145.24 77.9258C147.285 75.2583 153.214 69.9107 155.611 67.6316C156.052 67.211 156.312 67.0504 156.746 66.6543L167.16 58.5298C168.727 57.2413 170.527 56.234 172.102 55.2377L177.386 52.0913C178.146 51.6952 179.286 50.8697 180.305 50.7348ZM259.959 32.6388C263.197 31.0658 287.385 33.329 293.3 34.9254L309.226 39.3744C313.434 40.5026 313.173 40.9099 315.965 41.9814C316.437 42.1624 317.165 42.3514 317.729 42.6115C318.322 42.8851 318.677 42.9997 319.376 43.3172L331.426 50.7711C331.572 50.889 331.883 51.104 332.086 51.2858C335.578 54.4194 338.892 58.4503 337.696 63.4597C336.829 67.0914 333.719 68.6979 330.586 70.0219C327.9 71.1573 315.073 74.4251 311.883 74.7274C312.055 74.2905 312.025 74.4086 312.179 74.1936C312.184 74.1875 312.635 73.6986 312.645 73.6907C312.965 73.4458 313.278 73.3924 313.734 73.1335C314.271 72.8293 315.199 71.9449 315.672 71.5526C318.036 69.5895 318.208 68.5755 319.441 66.6203C319.813 66.0307 319.816 66.104 320.01 65.5015C321.842 59.8152 320.193 56.9179 316.72 52.8062C315.353 51.1866 313.916 50.1695 312.193 48.6354C311.017 47.5873 309.277 46.9531 308.43 46.2826C308.056 45.9863 308.36 46.1895 307.871 45.9C307.475 45.6649 307.141 45.4998 306.673 45.2235C305.838 44.7295 305.159 44.476 304.326 44.0312C300.236 41.8458 298.755 41.526 294.525 39.9227C293.224 39.4295 294.349 39.4085 292.175 38.8718L283.804 36.5893C280.193 35.4301 276.185 34.8959 272.343 34.2008L259.959 32.6388ZM261.689 26.438C259.203 26.8674 253.141 26.7088 250.036 27.064C242.825 27.8883 235.607 28.7114 228.441 29.8653L203.722 35.6391C199.059 36.9914 194.481 38.4273 189.95 40.2448C188.607 40.7834 186.975 41.4613 185.637 41.9949C181.352 43.7048 177.097 45.6235 173.027 47.7499C172.261 48.1501 172.006 48.407 171.131 48.8503C167.364 50.7586 161.357 54.3496 157.73 56.852L142.308 68.883C141.735 69.4295 141.346 69.8538 140.729 70.3508L131.463 79.4114C127.808 83.4373 124.6 87.891 121.185 92.1354L119.329 95.017C118.891 95.7461 118.552 96.005 118.115 96.8619C117.577 97.9179 117.523 97.85 116.87 98.6282C115.534 100.219 114.574 102.657 113.515 104.438C109.594 111.026 106.738 118.425 104.028 125.468C103.16 127.723 102.526 130.206 101.995 132.641C101.792 133.566 101.567 133.94 101.364 134.984C100.939 137.176 100.184 140.698 101.638 142.962C103.071 145.192 106.417 144.201 108.538 143.617C111.423 142.823 113.882 141.598 116.605 140.89L122.43 138.932C123.902 138.447 125.312 137.984 126.968 137.422C127.812 137.135 128.432 137.041 129.347 136.688C130.066 136.411 130.767 136.185 131.581 135.905L147.768 130.685C148.441 130.46 149.104 130.068 149.89 129.844C150.752 129.598 151.735 129.514 152.444 129.229C153.448 128.826 153.632 128.789 154.776 128.477L191.954 116.66C193.362 116.213 195.044 115.785 196.655 115.268C197.461 115.008 198.127 114.83 199.037 114.587L220.303 108.347C221.158 108.103 221.967 107.946 222.73 107.715L226.172 106.706C226.618 106.56 227.088 106.449 227.457 106.343C228.458 106.057 228.651 105.858 229.799 105.665L244.215 101.788C246.5 100.943 251.27 100.122 254.102 99.3909C259.055 98.1119 263.601 96.7698 268.708 95.71C270.154 95.4099 272.251 95.0241 273.731 94.6054C275.36 94.1443 276.859 93.8358 278.497 93.318C280.054 92.8262 281.891 92.6305 283.467 92.1974L300.9 88.2685C301.557 88.1426 302.644 87.8226 303.365 87.6688C323.881 83.286 344.198 79.11 364.758 75.5607C367.183 75.1419 370.546 75.0817 372.543 73.4716L372.923 73.1382C374.415 71.6423 374.342 69.0407 373.499 67.3857C372.487 65.4018 370.819 63.3959 369.409 61.6006L366.775 58.8537C366.268 58.2955 365.622 57.9496 365.19 57.3974C364.374 56.3542 363.477 55.7827 362.49 54.9248L351.355 46.7846C350.288 46.1228 348.56 45.0822 347.445 44.5659L345.615 43.4161C342.191 41.7002 335.453 38.366 331.92 37.1701C326.935 35.4837 321.852 33.7254 316.725 32.415L306.813 30.0552C297.617 28.0184 283.391 26.3067 273.944 26.2984C270.753 26.2954 264.379 25.9735 261.689 26.438Z" fill="#020204" stroke="black" stroke-width="0.755906" stroke-miterlimit="22.9256"/>
<path fill-rule="evenodd" clip-rule="evenodd" d="M306.094 220.481L306.068 257.311L283.512 230.629C283.099 230.131 282.886 230.046 282.466 229.569L280.598 227.458C279.892 226.708 279.368 226.039 278.692 225.357C275.806 222.441 272.206 217.511 268.684 215.623C260.165 211.056 251.599 214.913 243.044 217.489C240.921 218.128 238.741 218.708 236.862 219.329C232.965 220.616 233.775 219.381 233.775 224.238C233.775 264.058 233.562 304.43 233.8 344.182L252.289 337.837C267.301 332.178 269.992 322.497 269.046 307.818C269 307.098 269.03 306.214 269.03 305.479C269.03 294.195 268.858 281.683 269.063 270.548C270.066 271.405 270.924 272.571 271.885 273.72C272.443 274.387 272.789 274.602 273.326 275.334C273.919 276.143 274.281 276.231 274.777 276.925C275.596 278.067 276.562 278.883 277.631 280.189C277.924 280.547 277.926 280.653 278.214 281.004L290.335 294.969C292.016 297.088 295.932 301.158 298.087 303.875L303.099 309.656C304.28 310.818 305.047 312 305.929 312.936C307.05 314.127 308.041 314.963 309.212 315.764C316.6 320.819 328.186 319.547 334.36 313.763C341.221 307.336 340.41 300.801 340.41 292.8V210.854C340.41 205.134 340.766 198.156 340.346 192.59C338.487 192.661 330.133 194.829 327.787 195.425C320.095 197.379 312.052 199.72 308.758 207.384C307.086 211.273 306.094 215.495 306.094 220.481Z" fill="#020204" stroke="black" stroke-width="0.755906" stroke-miterlimit="22.9256"/>
<path fill-rule="evenodd" clip-rule="evenodd" d="M112.23 307.087L112.17 264.419C111.064 264.447 95.5022 271.014 93.2519 271.986L74.3448 279.823L74.3438 403.195C75.4738 403.119 99.6794 392.834 102.364 391.731C103.665 391.196 105.295 390.031 106.341 389.118C113.444 382.915 111.932 372.759 111.932 361.597C111.932 357.387 111.675 337.509 112.04 335.121C112.896 335.871 114.252 337.135 114.883 337.965C115.83 339.211 116.712 339.93 117.861 341.102C118.402 341.654 118.626 342.064 119.144 342.646L126.472 350.324C127.348 351.506 128.476 352.447 129.476 353.451L138.056 362.722C140.163 365.282 144.813 369.435 148.06 370.803C157.909 374.95 167.781 372.01 173.785 364.033C178.936 357.191 177.937 345.99 173.409 341.205C171.462 339.148 167.485 335.534 165.897 333.706C162.949 330.314 153.329 320.914 149.419 317.055C148.458 316.107 147.173 314.929 146.473 313.932C146.655 313.04 151.142 306.257 151.726 305.36L162.568 288.254C164.407 285.469 166.103 282.431 167.998 279.612C169.978 276.665 171.417 274.097 173.359 271.108C180.268 260.476 174.619 248.229 162.242 246.009C153.528 244.446 146.916 248.704 143.392 254.289C140.31 259.174 136.113 266.762 133.048 271.907L114.871 302.816C114.229 303.896 112.927 306.355 112.23 307.087Z" fill="#020204" stroke="black" stroke-width="0.755906" stroke-miterlimit="22.9256"/>
<path fill-rule="evenodd" clip-rule="evenodd" d="M345.777 246.778C345.777 255.033 347.288 265.344 350.729 272.61C354.624 280.836 359.823 287.38 367.765 292.218C373.045 295.435 379.366 297.854 385.506 298.893C401.537 301.603 418.451 298.34 432.77 291.019C433.764 290.51 434.429 290.117 435.451 289.469C439.067 287.175 443.798 284.266 446.401 280.931C446.713 280.53 447.192 280.116 447.518 279.707C453.93 271.638 454.046 263.636 454.046 251.475C454.046 239.913 454.234 228.194 454.04 216.653C452 216.794 412.827 225.444 407.961 226.517C406.362 226.869 402.509 227.497 401.481 227.993C401.338 232.35 401.065 242.281 401.934 245.092C405.431 256.393 417.719 249.859 420.653 249.89L420.687 256.64C420.687 259.65 420.708 260.916 419.221 262.676C418.087 264.018 416.241 264.962 414.67 265.653C410.232 267.605 407.244 267.929 401.677 267.888C394.929 267.943 390.408 264.108 387.508 259.78C383.977 254.509 383.138 246.481 383.138 239.265C383.138 231.63 386.622 221.663 392.127 215.858C393.501 214.408 391.985 215.61 394.33 213.613C396.241 211.985 395.243 212.571 398.017 210.724C403.512 207.067 411.993 204.749 418.348 204.751L424.453 204.752C430.986 204.756 438.908 208.891 445.037 206.536C456.514 202.128 458.52 182.91 444.502 177.208C427.389 170.248 405.223 172.356 388.166 179.264C384.028 180.939 380.075 183.126 376.222 185.639C374.346 186.862 372.798 188.131 370.959 189.53C366.136 193.199 361.067 198.707 357.754 203.795C349.405 216.617 345.777 231.3 345.777 246.778Z" fill="#020204" stroke="black" stroke-width="0.755906" stroke-miterlimit="22.9256"/>
<path fill-rule="evenodd" clip-rule="evenodd" d="M183.295 258.049C183.294 292.303 183.016 327.651 183.327 361.769C184.337 361.787 189.009 359.945 190.154 359.53L196.847 357.112C202.269 355.221 204.949 354.305 209.904 351.826C219.509 347.022 222.756 338.726 222.756 328.02L222.762 223.242C220.853 223.123 205.072 228.568 201.584 229.832C198.422 230.976 195.147 232.674 192.576 234.652L191.288 235.747C185.381 240.277 183.295 250.626 183.295 258.049Z" fill="#020204" stroke="black" stroke-width="0.755906" stroke-miterlimit="22.9256"/>
<path fill-rule="evenodd" clip-rule="evenodd" d="M78.155 246.497C77.901 240.425 78.116 233.881 78.1213 227.759C78.1236 225.283 77.6568 225.334 79.5919 224.526C83.2218 223.009 87.5487 222.258 90.3848 225.104C93.4697 228.199 92.9794 234.907 89.7853 239.197C87.3033 242.53 81.5928 245.751 78.155 246.497ZM78.195 192.305C83.2909 189.05 92.2613 189.116 90.1443 199.425C89.5638 202.255 87.7082 205.188 85.7428 206.747C83.8115 208.279 80.6351 210.359 78.1206 210.814L78.195 192.305ZM54.8915 185.26C54.5325 191.454 54.8576 198.675 54.8576 204.984L55.1199 275.03C56.1997 274.861 92.8974 259.453 96.8704 257.073C103.367 253.18 108.62 250.027 112.777 243.164C115.618 238.476 116.64 233.673 116.64 227.995C116.64 221.479 113.019 215.922 107.833 213.053C105.326 211.667 102.803 211.315 102.159 210.854C104.547 209.49 108.503 204.506 109.984 202.094C114.272 195.107 115.57 183.08 109.181 176.739C107.912 175.479 106.242 174.014 104.395 173.31C99.8192 171.566 99.5074 171.637 95.0219 171.635C86.4238 171.631 73.1433 177.774 64.4935 181.262C62.9873 181.87 55.7034 184.658 54.8915 185.26Z" fill="#020204" stroke="black" stroke-width="0.755906" stroke-miterlimit="22.9256"/>
<path fill-rule="evenodd" clip-rule="evenodd" d="M316.829 138.601C314.348 138.93 311.197 139.884 308.524 140.452C306.043 140.98 283.55 145.983 283.25 146.429C282.944 146.885 282.449 157.191 284.314 159.874C287.411 164.329 292.603 161.145 295.502 161.112C295.604 163.247 295.535 165.5 295.537 167.65C295.539 170.445 295.778 171.384 294.087 172.993C290.444 176.458 279.606 178.252 274.955 170.638C268.889 160.708 270.405 129.814 296.485 129.854C300.797 129.86 304.722 131.191 309.093 130.232C315.096 128.916 317.242 122.98 316.132 117.485C315.407 113.892 312.654 111.805 309.649 110.346C302.247 106.751 287.5 108.449 280.206 110.725C257.925 117.68 247.396 137.031 247.398 159.667C247.4 168.964 250.08 179.397 255.57 185.54C256.076 186.105 256.531 186.595 257.144 187.258C257.486 187.629 257.682 187.717 258.04 188.016C261.747 191.117 262.467 191.924 267.616 193.963C281.89 199.619 310.008 192.559 315.496 178.004C317.619 172.375 316.923 158.813 316.923 152.153C316.923 148.76 317.321 141.543 316.829 138.601Z" fill="#020204" stroke="black" stroke-width="0.755906" stroke-miterlimit="22.9256"/>
<path fill-rule="evenodd" clip-rule="evenodd" d="M208.445 167.181C208.467 161.363 208.269 155.319 208.416 149.541C208.448 148.293 208.387 148.49 209.402 148.171C213.144 146.994 218.37 146.139 220.41 150.275C222.94 155.402 219.515 162.256 215.898 165.72C215.256 166.335 214.55 167.199 213.774 167.819C212.726 168.656 209.889 171.007 208.443 171.197L208.445 167.181ZM185.423 138.935L185.41 223.124C186.748 223.2 194.948 220.175 196.933 219.53C208.176 215.876 208.432 209.908 208.448 200.523C208.457 195.431 208.365 190.278 208.466 185.195C209.575 185.725 223.825 200.822 226.232 203.175C227.31 204.231 228.638 205.818 230.043 206.632C237.143 210.744 246.583 207.215 248.292 199.553C250.251 190.774 244.241 187.247 238.325 181.424C236.63 179.756 231.782 175.55 231.085 174.225C231.45 173.568 234.268 171.116 235.143 170.17C239.377 165.589 242.34 161.561 243.947 154.786C246.072 145.83 244.679 136.811 236.574 131.759C225.772 125.027 209.336 131.114 197.485 134.86C193.523 136.113 189.533 137.261 185.423 138.935Z" fill="#020204" stroke="black" stroke-width="0.755906" stroke-miterlimit="22.9256"/>
<path fill-rule="evenodd" clip-rule="evenodd" d="M171.12 143.64C165.477 144.637 165.713 144.847 160.385 146.595C155.677 148.139 156.76 146.792 156.76 156.849C156.76 166.006 156.76 175.164 156.76 184.321C156.76 191.683 157.492 204.871 155.874 210.891C153.798 218.611 143.269 222.159 141.619 212.408C141.259 210.278 141.524 176.662 141.524 171.407C141.524 167.363 141.883 161.874 140.015 159.047C137.854 155.776 133.851 155.544 129.876 156.69C126.538 157.651 123.188 159.139 119.669 160.334C118.442 160.751 118.239 160.628 118.222 162.228C118.049 179.103 118.253 197.211 118.252 214.141C118.251 223.097 119.661 229.653 124.992 234.896C129.823 239.648 138.568 241.203 146.451 239.489C155.942 237.426 165.795 233.359 171.964 225.573C179.961 215.483 179.556 202.004 179.556 189.956C179.556 180.799 179.556 171.642 179.556 162.484C179.556 158.385 180.025 152.597 179.19 148.998C178.406 145.617 175.399 142.884 171.12 143.64Z" fill="#020204" stroke="black" stroke-width="0.755906" stroke-miterlimit="22.9256"/>
<path fill-rule="evenodd" clip-rule="evenodd" d="M398.554 104.879C401.853 103.309 412.32 102.916 411.23 112.206C410.499 118.439 405.547 122.67 400.392 125.479C398.851 126.319 398.607 126.436 398.622 124.47L398.554 104.879ZM376.389 91.799L376.312 172.808L387.912 170.582C389.769 170.17 391.646 169.723 393.045 168.889C399.201 165.221 398.64 159.866 398.64 153.562C398.64 149.386 398.299 143.499 398.708 139.529L415.464 159.251C416.543 160.46 417.764 161.934 419.043 162.952C422.843 165.981 428.585 166.28 432.775 163.529C433.849 162.824 434.067 162.653 434.862 161.843C439.442 157.179 438.894 151.176 434.763 146.294L423.482 133.658C422.23 132.279 421.238 131.41 421.056 130.21L425.351 126.973C426.327 126.108 428.204 124.084 428.924 123.044C431.456 119.392 432.575 117.71 433.75 112.836C435.72 104.668 433.314 96.1482 426.53 91.132C417.163 84.2056 406.78 86.6577 395.685 88.3963L376.389 91.799Z" fill="#020204" stroke="black" stroke-width="0.755906" stroke-miterlimit="22.9256"/>
<path fill-rule="evenodd" clip-rule="evenodd" d="M322.101 102.635L321.793 184.765L362.379 175.519C368.17 174.329 371.65 171.242 371.626 164.835C371.616 161.947 371.897 157.462 371.549 154.777C367.047 155.598 347.253 160.419 344.88 160.393C344.8 158.023 344.554 146.612 345.008 145.265C345.776 144.621 360.556 141.921 363.3 141.048C366.293 140.095 368.013 138.054 368.523 134.971C368.905 132.672 368.621 126.16 368.597 123.464C366.779 123.541 364.355 124.143 362.559 124.567C360.708 125.003 358.688 125.442 356.821 125.84L344.901 128.227L344.863 116.058C347.516 115.786 356.454 113.669 360.108 112.939C361.511 112.659 363.691 112.265 365.116 111.807C371.511 109.75 370.694 103.981 370.689 99.0844C370.686 96.9981 370.954 95.1236 370.922 92.8816C367.157 93.0509 339.959 98.8322 334.277 100.003C330.244 100.834 325.927 102.03 322.101 102.635Z" fill="#020204" stroke="black" stroke-width="0.755906" stroke-miterlimit="22.9256"/>
</svg>
