<svg width="320" height="97" viewBox="0 0 320 97" fill="none" xmlns="http://www.w3.org/2000/svg">
<path fill-rule="evenodd" clip-rule="evenodd" d="M33.0898 91.9718C33.8873 92.9235 36.9568 94.421 38.4557 95.1107C41.2371 96.389 41.9577 97.1675 44.7633 95.7426C65.0427 85.4453 77.4144 67.581 81.9676 44.7817C84.2009 33.5947 83.8153 22.9932 83.8648 11.0952C83.0458 12.35 83.4657 13.5912 81.6296 16.9833C80.7127 18.6765 79.2126 20.1397 77.8009 21.1526C74.2168 23.7238 70.1255 24.3024 64.9396 24.2903C54.3562 24.268 43.7682 24.2843 33.1315 24.2889L33.1397 43.5327L66.4 43.547C66.8366 46.8371 66.4823 53.8753 65.6486 56.8808C61.8414 70.6148 45.0865 65.9932 33.1315 66.9445L33.0898 91.9718Z" stroke="black" stroke-width="0.755906" stroke-miterlimit="22.9256"/>
<path fill-rule="evenodd" clip-rule="evenodd" d="M33.0897 91.9718L33.1313 66.9445C45.0863 65.9932 61.8413 70.6149 65.6484 56.8808C66.4821 53.8753 66.8364 46.8371 66.3999 43.5471L33.1396 43.5327L33.1313 24.2889C43.768 24.2844 54.356 24.2681 64.9394 24.2904C70.1253 24.3025 74.2166 23.7238 77.8008 21.1526C79.2124 20.1397 80.7125 18.6766 81.6294 16.9833C83.4655 13.5912 83.0457 12.35 83.8647 11.0952L83.845 0.936279H1.06231C1.12316 28.8813 -0.619904 44.1717 10.8113 67.8248C12.5366 71.3953 14.6278 74.1393 16.7735 77.2086C19.593 81.241 28.6672 90.2491 33.0897 91.9718Z" fill="#020204" stroke="black" stroke-width="0.755906" stroke-miterlimit="22.9256"/>
<path fill-rule="evenodd" clip-rule="evenodd" d="M259.702 14.5263C238.571 18.6331 242.817 50.6533 266.143 47.5885C274.842 46.4451 281.398 38.3596 279.845 27.7932C278.593 19.2715 270.14 12.4982 259.702 14.5263ZM261.078 21.617C249.796 24.3345 253.313 43.3803 265.388 40.4028C269.617 39.3596 272.713 34.6005 271.778 28.8265C271.02 24.1444 266.676 20.2689 261.078 21.617Z" fill="#020204" stroke="black" stroke-width="0.755906" stroke-miterlimit="22.9256"/>
<path fill-rule="evenodd" clip-rule="evenodd" d="M214.09 47.2653H225.907C236.024 47.2653 242.734 40.9154 242.5 30.6358C242.27 20.4837 235.729 14.6696 225.268 14.6696H214.09V47.2653ZM221.991 40.5397C227.713 40.5378 234.248 40.571 234.265 30.9581C234.282 21.5996 228.096 21.4322 222.073 21.4175L221.991 40.5397Z" fill="#020204" stroke="black" stroke-width="0.755906" stroke-miterlimit="22.9256"/>
<path fill-rule="evenodd" clip-rule="evenodd" d="M284.023 47.2633L291.875 47.2335L293.174 27.4201L298.358 42.1319L305.159 42.141L310.376 27.4258L311.688 47.2679L319.532 47.2653L316.878 14.6741L308.266 14.6695C307.283 17.8171 306.21 20.9495 305.049 24.1799C303.94 27.2636 303.059 30.5926 301.895 33.8479L295.303 14.6656L286.673 14.6845L284.023 47.2633Z" fill="#020204" stroke="black" stroke-width="0.755906" stroke-miterlimit="22.9256"/>
<path fill-rule="evenodd" clip-rule="evenodd" d="M131.539 47.5881L139.503 47.5892L139.513 36.6003L143.188 36.4503C145.768 39.5718 147.628 47.5878 150.215 47.5904L157.751 47.4717C155.609 43.3437 152.752 37.9322 150.392 34.1523C151.48 32.7554 153.082 32.5452 154.33 29.299C155.257 26.885 155.443 23.74 154.571 21.1968C151.73 12.9196 141.786 14.6465 131.541 14.6465L131.539 47.5881ZM139.665 20.8098L139.626 29.1122L144.13 29.034C144.13 29.034 146.167 28.4849 146.597 27.5064C147.028 26.5278 147.341 26.4095 147.38 24.6471C147.42 22.885 147.067 22.6501 146.401 21.9059C145.736 21.1617 145.422 21.083 144.169 20.8876C142.916 20.6922 139.665 20.8098 139.665 20.8098Z" fill="#020204" stroke="black" stroke-width="0.755906" stroke-miterlimit="22.9256"/>
<path fill-rule="evenodd" clip-rule="evenodd" d="M161.668 47.2672C167.034 47.2654 177.972 47.4699 182.712 47.1955L182.71 40.6221L169.617 40.5397L169.701 34.2257L179.516 34.2104L179.501 27.5914L169.615 27.5253L169.68 21.4179L182.152 21.4187V14.6696H161.672L161.668 47.2672Z" fill="#020204" stroke="black" stroke-width="0.755906" stroke-miterlimit="22.9256"/>
<path fill-rule="evenodd" clip-rule="evenodd" d="M187.883 47.2653H208.984L208.985 40.5397H195.886L195.946 34.2282H205.791L205.73 27.5226L195.886 27.5253L195.92 21.4187L208.263 21.4061L208.261 14.75L187.883 14.6696V47.2653Z" fill="#020204" stroke="black" stroke-width="0.755906" stroke-miterlimit="22.9256"/>
<path fill-rule="evenodd" clip-rule="evenodd" d="M107.078 47.2464H114.879L114.902 35.2571C119.42 34.3825 124.823 37.4223 124.836 28.5392L114.905 28.3519L114.889 21.5529C122.251 20.173 126.975 24.5213 126.975 14.6696H107.097L107.078 47.2464Z" fill="#020204" stroke="black" stroke-width="0.755906" stroke-miterlimit="22.9256"/>
<path fill-rule="evenodd" clip-rule="evenodd" d="M107.056 81.2048C112.879 81.2059 121.39 82.2275 123.701 77.573C126.308 72.3244 122.351 70.0506 121.075 68.9647C121.837 67.8418 122.651 67.6907 123.211 65.8984C124.595 61.4673 121.486 57.958 115.724 57.958H107.055L107.056 81.2048ZM112.713 71.1917L112.757 76.1084L116.455 75.9781C116.455 75.9781 118.283 75.8039 118.413 73.7157C118.544 71.6271 116.977 71.2794 116.585 71.2355C116.194 71.1917 112.713 71.1917 112.713 71.1917ZM112.713 62.4164L112.752 66.8433L116.082 66.7258C116.082 66.7258 117.728 66.5693 117.846 64.689C117.963 62.8086 116.552 62.4958 116.2 62.4561C115.847 62.4164 112.713 62.4164 112.713 62.4164Z" fill="#020204" stroke="black" stroke-width="0.755906" stroke-miterlimit="22.9256"/>
<path fill-rule="evenodd" clip-rule="evenodd" d="M149.559 81.1041L155.083 81.1048L155.456 67.5133L159.225 74.0042C160.551 76.2231 162.398 78.8742 163.354 81.0588L169.079 81.1041V57.9889L163.511 57.9901L163.661 72.2861L157.235 61.3088C154.695 57.1823 156.817 57.9889 149.559 57.9889V81.1041Z" fill="#020204" stroke="black" stroke-width="0.755906" stroke-miterlimit="22.9256"/>
<path fill-rule="evenodd" clip-rule="evenodd" d="M125.402 80.9583L131.199 81.1485L132.593 76.2596C137.054 76.2517 139.385 75.6178 140.157 77.1013L141.294 81.0824L147.104 81.134C146.15 77.2793 144.463 73.3044 143.135 69.362C142.457 67.3494 141.875 65.6066 141.202 63.6167L139.738 59.3523C139.073 57.5483 139.887 57.9581 133.202 57.9577L125.402 80.9583ZM136.283 62.5891L133.75 71.6501L138.777 71.5718L136.283 62.5891Z" fill="#020204" stroke="black" stroke-width="0.755906" stroke-miterlimit="22.9256"/>
<path fill-rule="evenodd" clip-rule="evenodd" d="M174.047 81.1783L179.616 81.1776V71.856C183.002 71.8001 182.04 71.6025 185.864 78.9923C186.064 79.3816 186.281 79.8793 186.522 80.2315C187.415 81.5362 188.397 81.3496 192.052 81.1769L193.189 81.0698C191.986 78.2197 187.499 71.1554 186.963 69.5827C186.465 68.1253 192.006 60.7159 192.807 57.989H186.901C186.651 58.6935 182.686 66.9691 181.513 66.971C179.013 66.9737 179.673 68.117 179.673 57.9883L174.047 57.9902V81.1783Z" fill="#020204" stroke="black" stroke-width="0.755906" stroke-miterlimit="22.9256"/>
</svg>
