<svg width="220" height="220" viewBox="0 0 220 220" fill="none" xmlns="http://www.w3.org/2000/svg">
<path fill-rule="evenodd" clip-rule="evenodd" d="M100.642 98.8301L100.343 100.173C96.6842 98.3504 100.059 103.553 99.7048 99.3527C99.6689 98.9253 100.333 99.0093 100.642 98.8301ZM111.685 119.801L110.492 115.655L108.204 119.569C108.716 123.949 109.71 121.175 107.29 125.06L106.418 123.284C105.858 120.557 106.281 123.955 106.151 120.924C106.116 120.109 106.409 117.728 106.453 116.727C107.127 101.237 104.347 109.4 100.343 100.173C103.38 101.323 100.714 99.3184 104.445 102.365C109.951 103.279 106.407 103.121 107.288 101.173L108.671 96.1311L112.014 96.0933L112.636 100.995C112.155 103.648 111.682 102.87 114.527 102.929C121.841 99.2504 115.717 100.894 119.607 90.4035C124.293 77.7655 121.904 77.061 138.688 77.1793C141.57 80.1028 149.456 93.6752 147.321 98.575C142.512 94.684 144.247 92.0843 139.036 85.7207C139.041 92.8293 139.221 99.9261 139.398 107.029C139.479 110.256 139.589 113.493 139.672 116.717C139.888 125.246 139.46 123.113 137.659 125.36C133.292 122.58 134.214 115.207 133.089 104.095C131.832 107.668 131.514 111.473 131.201 115.551C130.218 128.288 130.493 123.666 127.996 125.36C126.652 123.632 126.779 126.574 125.937 120.921L126.448 85.9728L121.684 93.9366C119.703 97.8534 120.48 98.2525 120.398 100.811C107.039 112.372 118.661 119.545 112.188 125.176L111.685 119.801ZM80.9787 87.7477L78.9926 87.468C78.5254 91.6917 76.5181 97.2014 71.8292 98.3182C73.0107 91.2713 78.0801 79.6708 83.8231 76.789C86.5221 78.8806 85.628 77.5134 87.2736 81.4933L90.7253 76.7912C97.513 79.3257 100.369 90.441 103.063 97.855L100.642 98.8301L93.5838 86.4597L96.5809 104.651L92.961 107.029C92.602 112.866 93.0705 120.898 90.7253 125.189C86.4148 119.04 90.8247 111.989 86.7523 105.646C86.5754 109.223 86.3592 112.786 86.1974 116.364C85.6536 128.42 85.4015 123.09 83.152 125.066L82.1257 106.608L78.2609 104.262L80.9787 87.7477ZM133.404 65.5233C137.798 65.7391 139.5 71.272 136.565 74.223C132.483 78.3272 124.074 73.1719 129.634 67.4274C130.309 66.7293 127.815 65.2478 133.404 65.5233ZM84.2529 67.4274C90.5961 61.1107 95.2045 70.4987 91.2738 74.4279C87.1953 78.5042 78.2162 73.4372 84.2529 67.4274ZM57.5963 144.3C84.389 130.123 63.6899 124.863 113.943 137.647C124.846 140.42 121.455 140.104 122.475 142.919C115.36 146.333 110.772 142.795 100.397 144.211C92.7841 145.25 94.7796 145.937 93.4859 147.06C100.501 147.06 99.7815 145.68 105.91 145.68C111.959 145.68 114.9 147.847 119.21 146.646C126.181 144.706 124.28 142.511 123.855 137.398C126.175 136.778 148.701 119.49 148.701 129.116C148.701 135.485 133.908 146.488 126.141 150.727C119.176 154.529 114.906 159.484 105.91 159.484C94.9954 159.484 85.631 149.233 70.02 156.723C81.308 173.581 125.312 179.357 148.364 159.146C153.775 154.401 158.116 151.726 162.983 143.396C165.479 139.125 166.199 137.728 168.039 133.268C181.412 100.84 166.421 66.8685 135.842 52.2508C121.65 45.4662 107.593 45.2227 92.352 49.2997C60.8655 57.7231 39.0593 92.759 50.4988 129.312C52.9411 137.117 54.3606 138.185 57.5963 144.3Z" fill="#020204"/>
<path d="M100.642 98.8301L100.343 100.173M100.642 98.8301C100.333 99.0093 99.6689 98.9253 99.7048 99.3527C100.059 103.553 96.6842 98.3504 100.343 100.173M100.642 98.8301L103.063 97.855C100.369 90.441 97.513 79.3257 90.7253 76.7912L87.2736 81.4933C85.628 77.5134 86.5221 78.8805 83.8231 76.789C78.0801 79.6708 73.0107 91.2713 71.8292 98.3182C76.5181 97.2014 78.5254 91.6917 78.9926 87.468L80.9787 87.7477L78.2609 104.262L82.1257 106.608L83.152 125.066C85.4015 123.09 85.6536 128.42 86.1974 116.364C86.3592 112.786 86.5754 109.223 86.7523 105.646C90.8247 111.989 86.4148 119.04 90.7253 125.189C93.0705 120.898 92.602 112.866 92.961 107.029L96.5809 104.651L93.5838 86.4597L100.642 98.8301ZM100.343 100.173C104.347 109.4 107.127 101.237 106.453 116.727C106.409 117.728 106.116 120.109 106.151 120.924C106.281 123.955 105.858 120.557 106.418 123.284L107.29 125.06C109.71 121.175 108.716 123.949 108.204 119.569L110.492 115.655L111.685 119.801L112.188 125.176C118.661 119.545 107.039 112.372 120.398 100.811C120.48 98.2525 119.703 97.8534 121.684 93.9366L126.448 85.9728L125.937 120.921C126.779 126.574 126.652 123.632 127.996 125.36C130.493 123.666 130.218 128.288 131.201 115.551C131.514 111.473 131.832 107.668 133.089 104.095C134.214 115.207 133.292 122.58 137.659 125.36C139.46 123.113 139.888 125.246 139.672 116.717C139.589 113.493 139.479 110.256 139.398 107.029C139.221 99.9261 139.041 92.8293 139.036 85.7208C144.247 92.0843 142.512 94.684 147.321 98.575C149.456 93.6752 141.57 80.1028 138.688 77.1793C121.904 77.061 124.293 77.7655 119.607 90.4035C115.717 100.894 121.841 99.2504 114.527 102.929C111.682 102.87 112.155 103.648 112.636 100.995L112.014 96.0933L108.671 96.1311L107.288 101.173C106.407 103.121 109.951 103.279 104.445 102.365C100.714 99.3184 103.38 101.323 100.343 100.173ZM133.404 65.5233C137.798 65.7391 139.5 71.272 136.565 74.223C132.483 78.3272 124.074 73.1719 129.634 67.4274C130.309 66.7293 127.815 65.2478 133.404 65.5233ZM84.2529 67.4274C90.5961 61.1107 95.2045 70.4987 91.2738 74.4279C87.1953 78.5042 78.2162 73.4372 84.2529 67.4274ZM57.5963 144.3C84.389 130.123 63.6899 124.863 113.943 137.647C124.846 140.42 121.455 140.104 122.475 142.919C115.36 146.333 110.772 142.795 100.397 144.211C92.7841 145.25 94.7796 145.937 93.4859 147.06C100.501 147.06 99.7815 145.68 105.91 145.68C111.959 145.68 114.9 147.847 119.21 146.646C126.181 144.706 124.28 142.511 123.855 137.398C126.175 136.778 148.701 119.49 148.701 129.116C148.701 135.485 133.908 146.488 126.141 150.727C119.176 154.529 114.906 159.484 105.91 159.484C94.9954 159.484 85.631 149.233 70.02 156.723C81.308 173.581 125.312 179.357 148.364 159.146C153.775 154.401 158.116 151.726 162.983 143.396C165.479 139.125 166.199 137.728 168.039 133.268C181.412 100.84 166.421 66.8685 135.842 52.2508C121.65 45.4662 107.593 45.2227 92.352 49.2997C60.8655 57.7231 39.0593 92.759 50.4988 129.312C52.9411 137.117 54.3606 138.185 57.5963 144.3Z" stroke="black" stroke-width="0.755906" stroke-miterlimit="22.9256"/>
<path fill-rule="evenodd" clip-rule="evenodd" d="M7.90234 152.582C15.9229 152.582 23.5205 151.239 30.0969 149.929C40.9868 147.763 42.0035 148.757 46.5529 140.158C41.9438 130.553 40.7301 127.266 22.2513 140.703C19.92 142.399 17.1569 144.331 15.1568 146.033L9.38699 151.306C9.19915 151.463 8.79395 151.814 8.64201 151.941C8.49007 152.069 8.14839 152.368 7.90234 152.582Z" fill="#020204" stroke="black" stroke-width="0.755906" stroke-miterlimit="22.9256"/>
<path fill-rule="evenodd" clip-rule="evenodd" d="M79.6815 46.2924C89.2872 41.6833 92.5739 40.4697 79.1369 21.9905C77.441 19.6593 75.5089 16.8964 73.807 14.8959C72.5197 13.3833 71.7709 12.9497 70.3917 11.4088L67.2578 7.64185C67.2578 15.662 68.6013 23.26 69.9106 29.8364C72.0774 40.7263 71.0831 41.7426 79.6815 46.2924Z" fill="#020204" stroke="black" stroke-width="0.755906" stroke-miterlimit="22.9256"/>
<path fill-rule="evenodd" clip-rule="evenodd" d="M180.449 105.649V113.932C188.182 119.109 186.049 118.619 203.61 115.007C208.366 114.029 214.02 111.593 219.1 111.171V108.41C204.218 107.171 193.935 96.6186 180.449 105.649Z" fill="#020204" stroke="black" stroke-width="0.755906" stroke-miterlimit="22.9256"/>
<path fill-rule="evenodd" clip-rule="evenodd" d="M105.91 39.3902H114.193C119.371 31.658 118.88 33.7905 115.268 16.2296C114.29 11.4739 111.854 5.81931 111.432 0.739624H108.671C107.432 15.6215 96.8798 25.9048 105.91 39.3902Z" fill="#020204" stroke="black" stroke-width="0.755906" stroke-miterlimit="22.9256"/>
<path fill-rule="evenodd" clip-rule="evenodd" d="M1 108.41V111.171C15.8815 112.41 26.1648 122.962 39.6505 113.932V105.649C31.918 100.471 34.0504 100.962 16.4896 104.574C11.7342 105.552 6.07931 107.987 1 108.41Z" fill="#020204" stroke="black" stroke-width="0.755906" stroke-miterlimit="22.9256"/>
<path fill-rule="evenodd" clip-rule="evenodd" d="M156.984 165.006C156.984 171.103 172.792 179.397 177.97 182.671C181.588 184.959 182.742 186.018 187.353 187.092C185.869 180.723 171.494 156.723 166.647 156.723C161.072 156.723 156.984 159.729 156.984 165.006Z" fill="#020204" stroke="black" stroke-width="0.755906" stroke-miterlimit="22.9256"/>
<path fill-rule="evenodd" clip-rule="evenodd" d="M101.77 187.092C103.009 192.411 103.63 197.49 104.836 203.351C105.814 208.106 108.249 213.761 108.672 218.841H111.432C112.671 203.959 123.224 193.676 114.193 180.19H105.911C104.073 182.935 103.398 184.015 101.77 187.092Z" fill="#020204" stroke="black" stroke-width="0.755906" stroke-miterlimit="22.9256"/>
<path fill-rule="evenodd" clip-rule="evenodd" d="M132.137 181.571C132.137 185.087 138.771 194.576 140.963 197.59L152.842 211.939C152.842 203.918 151.499 196.321 150.189 189.744C148.022 178.854 149.017 177.838 140.418 173.288C136.352 175.239 132.137 175.554 132.137 181.571Z" fill="#020204" stroke="black" stroke-width="0.755906" stroke-miterlimit="22.9256"/>
<path fill-rule="evenodd" clip-rule="evenodd" d="M173.547 79.4223C178.156 89.0279 179.37 92.3146 197.849 78.8776L212.197 66.9985C204.177 66.9985 196.579 68.3421 190.003 69.6513C179.113 71.8181 178.097 70.8235 173.547 79.4223Z" fill="#020204" stroke="black" stroke-width="0.755906" stroke-miterlimit="22.9256"/>
<path fill-rule="evenodd" clip-rule="evenodd" d="M74.16 176.049C72.7903 181.927 70.7886 185.872 70.0486 192.644C69.5516 197.197 68.7783 207.39 67.2578 210.558C78.0038 207.689 103.339 164.723 74.16 176.049Z" fill="#020204" stroke="black" stroke-width="0.755906" stroke-miterlimit="22.9256"/>
<path fill-rule="evenodd" clip-rule="evenodd" d="M132.137 38.0099C132.137 47.9262 140.874 44.7125 145.94 43.5314C147.31 37.6539 149.311 33.7085 150.052 26.9371C150.548 22.3835 151.322 12.1909 152.842 9.02209C148.176 10.2682 144.078 16.145 140.39 21.417C137.843 25.0597 132.137 32.4271 132.137 38.0099Z" fill="#020204" stroke="black" stroke-width="0.755906" stroke-miterlimit="22.9256"/>
<path fill-rule="evenodd" clip-rule="evenodd" d="M32.75 187.092C39.1193 185.608 63.1189 171.232 63.1189 166.386C63.1189 161.361 58.113 145.546 41.8542 169.969C38.9383 174.348 33.8627 182.317 32.75 187.092Z" fill="#020204" stroke="black" stroke-width="0.755906" stroke-miterlimit="22.9256"/>
<path fill-rule="evenodd" clip-rule="evenodd" d="M53.4562 62.8572C58.4818 62.8572 74.2962 57.8513 49.8736 41.5925C45.4947 38.6766 37.5251 33.601 32.75 32.4883C34.2346 38.8572 48.6101 62.8572 53.4562 62.8572Z" fill="#020204" stroke="black" stroke-width="0.755906" stroke-miterlimit="22.9256"/>
<path fill-rule="evenodd" clip-rule="evenodd" d="M156.984 53.1945C156.984 58.2197 161.99 74.0345 178.249 49.6119C180.314 46.5108 181.054 44.842 182.932 41.8717C185.22 38.2532 186.279 37.0997 187.353 32.4883C180.984 33.9729 156.984 48.348 156.984 53.1945Z" fill="#020204" stroke="black" stroke-width="0.755906" stroke-miterlimit="22.9256"/>
<path fill-rule="evenodd" clip-rule="evenodd" d="M38.2686 87.7038C48.1853 87.7038 44.9713 78.9667 43.7906 73.9006C37.9126 72.5309 33.9672 70.5293 27.1958 69.7889C22.6422 69.2919 12.4496 68.519 9.28125 66.9985C10.5372 71.7033 11.2485 71.3876 14.7974 73.9052C17.7421 75.9945 18.7568 77.4085 21.6757 79.4502C25.3184 81.9976 32.6862 87.7038 38.2686 87.7038Z" fill="#020204" stroke="black" stroke-width="0.755906" stroke-miterlimit="22.9256"/>
<path fill-rule="evenodd" clip-rule="evenodd" d="M174.93 137.398L176.31 145.68C182.188 147.049 186.133 149.051 192.905 149.791C197.458 150.288 207.651 151.062 210.82 152.582C208.654 144.471 174.93 121.401 174.93 137.398Z" fill="#020204" stroke="black" stroke-width="0.755906" stroke-miterlimit="22.9256"/>
<path fill-rule="evenodd" clip-rule="evenodd" d="M100.344 100.173L100.643 98.8301C100.334 99.0092 99.6699 98.9253 99.7058 99.3527C100.06 103.553 96.6852 98.3504 100.344 100.173Z" fill="#020204" stroke="black" stroke-width="0.755906" stroke-miterlimit="22.9256"/>
</svg>
