<svg width="651" height="173" viewBox="0 0 651 173" fill="none" xmlns="http://www.w3.org/2000/svg">
<path fill-rule="evenodd" clip-rule="evenodd" d="M1.02498 62.6975L80.5581 62.6381C80.4144 60.4135 77.7721 49.3716 76.9402 46.4821L72.9717 31.4352C71.9059 26.3026 70.2603 21.1999 69.1858 16.6112C67.9325 11.2624 66.4361 6.44433 65.4376 1.18361L15.6655 1.15674C14.419 11.0485 0.328416 57.2999 1.02498 62.6975Z" fill="#020204" stroke="black" stroke-width="0.755906" stroke-miterlimit="22.9256"/>
<path fill-rule="evenodd" clip-rule="evenodd" d="M203.665 149.571C206.383 135.448 196.714 104.296 215.741 104.267C232.342 104.241 224.016 128.057 226.619 150.058C229.225 150.076 235.188 150.39 237.612 149.752L238.518 149.355C239.893 146.458 239.132 128.555 239.132 123.754C239.132 110.067 238.784 93.6845 218.521 92.3398C207.149 91.585 203.452 98.3773 200.553 99.781C198.499 99.0565 197.411 96.4822 194.024 94.6949C180.509 87.5644 172.142 97.0711 169.027 99.1305L168.847 94.3252C165.471 93.0901 159.949 93.8987 156.137 93.7725L156.353 149.942C160.292 150.259 165.546 150.51 168.896 149.645C169.324 140.662 168.972 130.59 168.958 121.426C168.946 113.675 170.158 104.872 180.173 104.264C192.086 103.539 191.066 114.807 191.066 122.008C191.065 127.254 190.428 146.056 191.459 149.73C194.89 150.538 200.946 150.548 203.665 149.571Z" fill="#020204" stroke="black" stroke-width="0.755906" stroke-miterlimit="22.9256"/>
<path fill-rule="evenodd" clip-rule="evenodd" d="M402.086 124.918C399.844 98.7264 433.847 98.918 436.154 119.104C437.431 130.283 431.164 137.255 421.867 139.012C411.866 140.901 402.814 133.418 402.086 124.918ZM436.488 100.712C432.707 97.7182 429.868 94.2729 423.295 92.9296C391.732 86.4795 373.988 130.891 405.102 148.502C410.073 151.316 417.154 152.085 423.458 150.627C431.93 148.669 433.644 144.533 436.438 143.327L436.436 150.067L447.615 149.703C447.705 149.517 447.937 149.612 448.088 149.542C450.378 147.568 449.169 100.601 449.169 91.1698C449.169 89.0158 449.91 74.1029 448.514 72.5506C446.729 71.0921 439.651 70.9834 436.554 71.9627L436.488 100.712Z" fill="#020204" stroke="black" stroke-width="0.755906" stroke-miterlimit="22.9256"/>
<path fill-rule="evenodd" clip-rule="evenodd" d="M264.167 124.336C261.528 100.526 295.872 97.2347 298.584 119.883C301.343 142.931 266.605 146.324 264.167 124.336ZM264.156 100.876L264.139 93.7379C247.561 94.7165 251.364 86.4337 251.364 133.064C251.364 141.282 250.036 166.522 252.347 172.048L264.1 172.206C264.268 163.982 264.101 155.729 264.107 147.542C264.108 145.642 263.498 143.573 265.294 144.092C265.532 144.16 277.465 158.264 297.832 147.189C302.666 144.561 307.181 138.476 309.259 133.458C317.665 113.162 301.756 89.9751 280.39 92.465C271.866 93.4586 267.974 96.7457 264.156 100.876Z" fill="#020204" stroke="black" stroke-width="0.755906" stroke-miterlimit="22.9256"/>
<path fill-rule="evenodd" clip-rule="evenodd" d="M506.147 126.081C500.589 147.8 467.661 141.131 472.622 117.558C474.388 109.17 482.884 102.661 493.536 104.956C501.749 106.726 508.855 115.499 506.147 126.081ZM506.396 143.137L506.618 149.705C510.088 150.552 516.489 150.619 518.87 149.429C520.131 146.589 520.159 97.8363 518.991 94.3066C515.918 93.1871 510.286 93.7382 506.47 93.9408L506.383 100.786C489.149 82.3998 459.861 95.7357 459.273 121.41C459.126 127.873 461.096 134.175 463.796 138.049C466.829 142.402 470.477 145.955 475.003 148.391C479.788 150.967 486.317 152.101 492.87 150.831C498.354 149.767 500.029 148.676 503.463 145.65C504.594 144.653 505.421 144.246 506.396 143.137Z" fill="#020204" stroke="black" stroke-width="0.755906" stroke-miterlimit="22.9256"/>
<path fill-rule="evenodd" clip-rule="evenodd" d="M344.702 104.901C367.367 99.4672 374.718 134.271 352.437 138.807C329.263 143.524 323.239 110.046 344.702 104.901ZM366.157 143.236L366.103 150.089C369.872 150.045 375.227 150.688 378.188 149.606C379.32 146.57 379.291 96.3511 377.976 94.89C377.206 94.0354 378.38 93.7091 372.799 93.8093C370.53 93.8501 368.288 93.8372 366.019 93.7851L366.097 100.785C364.782 100.018 364.83 99.5976 363.642 98.5552C362.735 97.76 361.749 97.0399 360.689 96.2689C346.502 85.9463 318.763 95.9724 318.637 121.416C318.545 140.217 334.23 154.409 352.52 150.707C355.263 150.152 357.897 149.096 360.119 147.795C362.073 146.652 364.05 144.183 366.157 143.236Z" fill="#020204" stroke="black" stroke-width="0.755906" stroke-miterlimit="22.9256"/>
<path fill-rule="evenodd" clip-rule="evenodd" d="M108.541 104.949C131.051 99.2328 138.898 133.716 116.786 138.789C94.1979 143.97 86.4911 110.548 108.541 104.949ZM129.975 100.919C123.028 91.6757 109.006 90.4473 99.0455 94.9385C90.4384 98.8197 82.5751 109.361 82.761 121.419C83.0615 140.941 98.3844 154.32 116.817 150.654C124.107 149.204 125.747 146.598 129.943 143.021L130.087 150.007C132.246 150.073 134.404 150.067 136.564 150.093C142.405 150.165 140.902 149.827 141.655 149.14C143.974 147.3 142.711 139.305 142.711 135.973C142.711 131.318 142.711 126.664 142.711 122.009C142.711 87.9552 145.785 94.4356 129.955 93.7553L129.975 100.919Z" fill="#020204" stroke="black" stroke-width="0.755906" stroke-miterlimit="22.9256"/>
<path fill-rule="evenodd" clip-rule="evenodd" d="M617.735 104.927C632.676 101.4 643.374 121.043 633.974 132.413C626.865 141.012 615.289 140.11 609.641 135.349C599.889 127.131 600.279 109.047 617.735 104.927ZM650.122 122.008C650.89 110.45 643.117 99.7141 632.966 95.0649C621.387 89.7614 607.887 92.6374 599.722 100.495C595.091 104.951 590.919 111.524 590.698 120.839C589.986 150.759 625.924 159.972 641.491 142.833C647.252 136.491 649.382 133.138 650.122 122.008Z" fill="#020204" stroke="black" stroke-width="0.755906" stroke-miterlimit="22.9256"/>
<path fill-rule="evenodd" clip-rule="evenodd" d="M34.9557 71.6245C32.4098 76.0995 34.0587 141.342 35.0882 150.059C36.4451 150.068 78.0588 150.858 79.246 149.356C79.9006 147.325 79.6999 145.728 79.7082 143.536C79.7354 136.421 79.3809 136.89 71.9636 136.938L47.6873 136.981L47.4991 73.1877C47.0516 71.5897 47.6715 72.8309 46.747 71.6475L34.9557 71.6245Z" fill="#020204" stroke="black" stroke-width="0.755906" stroke-miterlimit="22.9256"/>
<path fill-rule="evenodd" clip-rule="evenodd" d="M542.077 149.92C544.024 134.379 538.036 115.984 547.536 109.455C550.685 107.29 552.702 107.003 556.184 106.564L559.489 105.907L559.502 93.4885C550.607 91.7651 546.162 96.4605 542.343 102.023L542.293 93.7726C527.968 94.2908 529.44 91.8526 529.44 99.8981C529.44 109.076 528.441 143.493 530.327 150.054L542.077 149.92Z" fill="#020204" stroke="black" stroke-width="0.755906" stroke-miterlimit="22.9256"/>
<path fill-rule="evenodd" clip-rule="evenodd" d="M580.247 149.334C581.611 131.054 580.164 112.097 580.092 93.8719C566.762 93.7811 567.454 92.2886 567.511 101.061C567.61 116.062 566.967 136.508 567.596 150.033L580.247 149.334Z" fill="#020204" stroke="black" stroke-width="0.755906" stroke-miterlimit="22.9256"/>
<path fill-rule="evenodd" clip-rule="evenodd" d="M571.888 70.6451C569.942 71.2596 570.999 70.3829 569.15 71.6786C566.897 73.2584 565.245 77.1803 566.212 80.3744C569.14 90.0481 584.33 86.5038 581.775 76.0723C580.83 72.2111 576.703 69.1235 571.888 70.6451Z" fill="#020204" stroke="black" stroke-width="0.755906" stroke-miterlimit="22.9256"/>
</svg>
