<svg width="316" height="67" viewBox="0 0 316 67" fill="none" xmlns="http://www.w3.org/2000/svg">
<path fill-rule="evenodd" clip-rule="evenodd" d="M60.3643 42.1011L59.8749 42.3L59.8638 41.775C60.0003 37.4791 59.7955 35.5319 61.7964 32.0657C65.1088 26.3257 71.9232 24.2726 77.7051 26.6484C79.7653 27.495 82.8808 30.3176 83.3858 32.5903L60.3643 42.1011ZM98.155 36.7935C97.8829 30.7334 93.6823 23.8898 90.7203 21.2876C76.9673 9.20516 52.1706 14.3908 47.4587 34.2496C45.8618 40.9805 47.1915 48.4088 50.1996 53.4193C56.737 64.3092 70.4627 67.9266 82.6834 64.6804C87.3236 63.4479 94.5293 60.0539 97.167 56.4996L88.6015 49.8651C83.0441 53.8234 76.3778 56.6677 68.8777 54.1626C65.5169 53.0401 65.3491 52.2779 63.7749 51.0295L98.155 36.7935Z" fill="#020204" stroke="black" stroke-width="0.755906" stroke-miterlimit="22.9256"/>
<path fill-rule="evenodd" clip-rule="evenodd" d="M197.371 40.6566C197.371 48.2678 191.682 54.4722 183.954 54.1626C176.633 53.8693 171.131 47.8089 171.217 40.1769C171.429 21.6266 197.371 22.3629 197.371 40.6566ZM157.84 40.8962C157.84 61.2244 181.687 72.578 199.262 61.4704C200.836 60.4756 203.456 58.2676 204.455 57.091C211.029 49.3547 212.801 38.3056 208.256 29.2952C207.477 27.7524 206.843 26.7207 205.919 25.4009C204.303 23.0935 201.74 20.7444 199.379 19.2383C182.524 8.48517 157.84 18.411 157.84 40.8962Z" fill="#020204" stroke="black" stroke-width="0.755906" stroke-miterlimit="22.9256"/>
<path fill-rule="evenodd" clip-rule="evenodd" d="M275.178 40.1774C275.178 32.4146 280.676 26.3651 288.421 26.5306C295.71 26.6867 301.352 32.853 301.352 40.1774C301.352 59.1385 275.178 58.3954 275.178 40.1774ZM288.414 65.813C307.959 65.813 320.353 46.3505 312.253 29.2666C311.265 27.183 309.883 25.3589 308.535 23.6434C307.64 22.5043 304.871 20.1962 303.36 19.238C285.625 7.98904 261.82 19.893 261.82 39.6981C261.82 47.2564 264.306 53.8365 269.638 58.7136C273.983 62.6881 280.306 65.813 288.414 65.813Z" fill="#020204" stroke="black" stroke-width="0.755906" stroke-miterlimit="22.9256"/>
<path fill-rule="evenodd" clip-rule="evenodd" d="M116.574 64.8847C116.574 56.569 116.574 48.2534 116.574 39.9376C116.574 34.4486 117.048 30.0832 122.901 27.5147C127.582 25.4609 133.941 27.1366 136.503 30.3644C138.93 33.422 138.974 35.3508 138.974 40.1773C138.974 48.4132 138.974 56.6488 138.972 64.9056L152.571 64.9739V34.4271C152.571 18.0175 135.903 10.7052 122.977 17.2971C119.924 18.8546 118.662 20.5562 116.582 22.4479L116.575 15.7848L102.977 15.7395V64.9739L116.574 64.8847Z" fill="#020204" stroke="black" stroke-width="0.755906" stroke-miterlimit="22.9256"/>
<path fill-rule="evenodd" clip-rule="evenodd" d="M208.664 15.7691C209.253 17.6592 210.397 20.0921 211.206 22.0348L226.434 59.0359C226.751 59.7975 228.368 64.7543 229.239 64.9739H242.895C243.965 64.9739 243.753 64.8069 244.018 64.2876L246.236 58.8518C250.33 48.7786 255.034 37.9776 258.956 27.966C260.516 23.9858 262.598 19.7133 263.949 15.7626L248.463 15.7793L236.241 48.9892L224.164 15.7739L208.664 15.7691Z" fill="#020204" stroke="black" stroke-width="0.755906" stroke-miterlimit="22.9256"/>
<path fill-rule="evenodd" clip-rule="evenodd" d="M1.24064 64.9755H45.4754C45.6844 63.8836 45.6845 53.6068 45.387 52.5149L14.8681 52.5107C14.8681 49.5778 15.1312 2.51319 14.72 1.00403H1.2123C0.924676 2.16397 0.924676 63.8152 1.24064 64.9755Z" fill="#020204" stroke="black" stroke-width="0.755906" stroke-miterlimit="22.9256"/>
<path fill-rule="evenodd" clip-rule="evenodd" d="M60.3638 42.101C60.1589 41.9638 60.0352 41.9404 59.8633 41.7749L59.8744 42.2999L60.3638 42.101Z" fill="#020204" stroke="black" stroke-width="0.755906" stroke-miterlimit="22.9256"/>
</svg>
