<svg width="318" height="52" viewBox="0 0 318 52" fill="none" xmlns="http://www.w3.org/2000/svg">
<path fill-rule="evenodd" clip-rule="evenodd" d="M114.504 50.1254H124.316V18.3018L124.752 19.1919C124.92 19.5869 125.004 19.8223 125.169 20.2339L132.707 38.4195C133.009 39.1187 133.199 39.7053 133.511 40.4004L136.043 46.4876C136.333 47.2148 136.561 47.7531 136.857 48.4576C137.164 49.1881 137.393 49.8654 137.709 50.5231H146.195L147.862 46.4884C151.208 38.4981 154.839 30.462 158.186 22.4691C158.49 21.7427 158.759 21.1145 159.061 20.427L159.985 18.4345V50.1254H173.51V1.46179H157.068C156.691 1.46179 156.632 1.74185 156.493 2.07936L144.073 31.0313C144.028 30.4851 142.898 27.9506 142.632 27.3009L133.712 5.19326C133.439 4.51219 132.312 1.94406 132.272 1.46179H114.504V50.1254Z" fill="#020204" stroke="black" stroke-width="0.755906" stroke-miterlimit="22.9256"/>
<path fill-rule="evenodd" clip-rule="evenodd" d="M228.406 50.1254H238.219V19.2301C238.239 19.2539 238.269 19.2615 238.277 19.3046C238.285 19.3476 238.323 19.3639 238.334 19.3801C238.473 19.5933 238.379 19.4346 238.485 19.6262C238.584 19.8046 238.652 19.9713 238.755 20.1519L249.888 40.3123C250.642 41.7731 255.015 49.3673 255.191 50.1254H270.705V1.46179H260.893V31.9596L260.627 31.5623C258.983 28.73 257.263 25.1919 255.645 22.4888C254.136 19.969 251.994 15.5949 250.412 12.871C250.064 12.272 249.711 11.6022 249.363 11.0028C249.176 10.6808 249.067 10.3924 248.869 10.0383L244.628 2.3454C244.434 1.97123 244.346 1.46179 243.92 1.46179H228.406V50.1254Z" fill="#020204" stroke="black" stroke-width="0.755906" stroke-miterlimit="22.9256"/>
<path fill-rule="evenodd" clip-rule="evenodd" d="M70.7461 50.1254H106.681V40.9759C106.681 40.6706 106.589 40.5784 106.283 40.5784H84.8018V29.4401H103.366V21.2188H84.8018V10.4785H106.15V1.46179H70.7461V50.1254Z" fill="#020204" stroke="black" stroke-width="0.755906" stroke-miterlimit="22.9256"/>
<path fill-rule="evenodd" clip-rule="evenodd" d="M184.648 50.1254H220.45V40.5784H198.704V29.4401H217.268V21.2188H198.704V10.4785H220.052V1.46179H184.648V50.1254Z" fill="#020204" stroke="black" stroke-width="0.755906" stroke-miterlimit="22.9256"/>
<path fill-rule="evenodd" clip-rule="evenodd" d="M1 15.2517C1 20.297 3.38192 23.846 6.81486 26.5427C8.11389 27.5632 10.7267 28.985 12.3269 29.6495C13.0601 29.9537 13.7031 30.2013 14.3894 30.5044C15.7017 31.0838 17.0605 31.6447 18.3746 32.2211C20.919 33.3368 24.8682 34.3954 24.8682 37.396C24.8682 44.7015 9.1906 41.3222 5.25876 40.1653L2.06093 39.2521V49.1972L5.69651 49.9376C11.3575 51.07 20.2735 51.7106 25.8135 50.1425C30.228 48.8926 34.0309 47.0792 36.6717 43.0997C39.834 38.3345 39.5732 31.0339 35.3772 26.887C33.1019 24.6382 31.8739 23.6559 28.7577 22.1029C26.1766 20.8167 23.6863 19.6318 21.1128 18.3445C19.2034 17.3891 14.6581 15.8875 14.6581 13.3956C14.6581 11.7001 15.7424 10.9087 16.8018 10.2355C20.7253 7.74406 29.5959 9.9264 33.6706 11.3554C34.2145 11.5459 34.4791 11.7545 35.0782 11.8044L35.0532 2.54759C34.8832 2.09366 35.068 2.34582 33.6749 2.06953C32.5505 1.84616 31.488 1.65977 30.4188 1.48024C22.2323 0.104112 12.6244 -0.261684 5.92328 5.05876C3.22167 7.20402 1 10.4438 1 15.2517Z" fill="#020204" stroke="black" stroke-width="0.755906" stroke-miterlimit="22.9256"/>
<path fill-rule="evenodd" clip-rule="evenodd" d="M279.723 14.7215C279.723 18.0891 280.57 21.4872 282.741 23.9019C283.732 25.0044 284.476 25.8027 285.691 26.6546L288.297 28.2908C288.693 28.5013 288.804 28.6101 289.224 28.8233L299.14 33.0953C300.906 33.7934 303.59 35.0282 303.59 37.2634C303.59 44.7571 287.739 41.338 283.983 40.1637L280.783 39.2521V49.1972L284.415 49.9414C287.791 50.7272 292.763 51.0537 296.43 51.0537C302.36 51.0537 307.337 49.7917 310.937 47.3944C315.34 44.4626 317.513 40.784 317.513 35.1419C317.513 30.6174 314.759 26.8032 311.203 24.3472C307.849 22.0311 302.008 19.4671 298.023 17.5044C296.181 16.5969 293.38 15.7121 293.38 13.1303C293.38 11.7613 294.638 10.6733 295.589 10.1679C298.978 8.36737 304.759 9.25023 308.205 10.1067L312.393 11.3555C312.937 11.546 313.202 11.7545 313.801 11.8044V2.39001C311.292 1.8057 308.546 1.37936 305.885 1.02333C299.177 0.126447 293.209 0.354346 287.191 3.36058C285.601 4.15504 283.148 6.07018 282.133 7.58502C281.732 8.18407 281.204 8.93126 280.933 9.56698C280.298 11.055 279.723 12.6307 279.723 14.7215Z" fill="#020204" stroke="black" stroke-width="0.755906" stroke-miterlimit="22.9256"/>
<path fill-rule="evenodd" clip-rule="evenodd" d="M45.1562 50.1254H59.7423V1.46179H45.1562V50.1254Z" fill="#020204" stroke="black" stroke-width="0.755906" stroke-miterlimit="22.9256"/>
</svg>
