<svg width="343" height="104" viewBox="0 0 343 104" fill="none" xmlns="http://www.w3.org/2000/svg">
<path fill-rule="evenodd" clip-rule="evenodd" d="M142.13 87.7628C142.13 84.8242 145.549 81.5234 147.478 81.5234C150.43 81.5234 158.75 81.1981 161.069 82.1936C166.05 84.3313 163.649 93.705 154.608 93.705C151.029 93.705 148.757 93.867 145.49 92.1273C143.82 91.238 142.13 89.6893 142.13 87.7628ZM147.478 50.0296C147.478 41.6197 160.254 41.0139 160.254 49.7325C160.254 52.4999 158.69 54.9103 156.435 55.7183C153.879 56.6353 151.293 56.3888 149.319 54.4268C148.368 53.4812 147.478 51.7886 147.478 50.0296ZM140.05 60.1312C137.559 60.7964 133.012 65.0531 132.306 69.0394C131.532 73.404 133.968 78.5113 137.97 79.4437C135.687 82.8525 131.434 82.2522 131.434 90.7342C131.434 100.23 144.038 102.915 152.231 102.915C156.856 102.915 162.545 101.7 166.492 99.9435C167.513 99.4892 169.303 98.4482 170.235 97.7437C181.2 89.4477 178.971 71.5553 164.4 70.5435C161.296 70.3285 148.92 70.3785 147.493 69.9208C142.49 68.3156 144.914 64.6883 146.876 63.6852C148.667 62.7698 159.317 65.7909 167.434 60.1805C169.091 59.035 170.155 57.9222 171.254 56.2758C173.361 53.1192 173.818 47.691 172.319 43.9058C171.425 41.6479 170.696 40.902 169.098 39.4023C162.347 33.0678 130.193 32.949 134.922 53.3747C136.066 58.3153 138.972 58.5219 140.05 60.1312Z" fill="#020204" stroke="black" stroke-width="0.755906" stroke-miterlimit="22.9256"/>
<path fill-rule="evenodd" clip-rule="evenodd" d="M42.8935 92.8139C38.6041 92.8139 37.6106 92.2539 36.0602 92.2195C35.9465 93.5835 35.451 95.1382 35.1902 96.4006C34.9169 97.7242 34.3767 99.6423 34.2773 100.836C45.0089 103.336 54.5614 102.6 60.897 92.0987C62.5801 89.3094 67.3017 77.5611 68.7852 73.8409C70.5502 69.414 83.7783 38.0672 83.8955 36.6589H71.417C71.324 37.7747 66.8316 48.901 66.3214 50.2821L61.8872 62.4864C61.5225 63.5809 61.8384 63.3925 61.0175 63.9938C60.9589 61.3511 57.7365 53.0128 56.6473 50.2401L51.8073 36.6589H37.5455C37.5817 38.2853 42.4476 49.8799 43.1558 51.8467C44.0644 54.3688 45.065 56.7984 46.0786 59.3231L53.3111 77.9618C54.0976 79.8512 53.6388 79.7314 52.8266 81.6507C51.0906 85.7503 48.1954 92.8139 42.8935 92.8139Z" fill="#020204" stroke="black" stroke-width="0.755906" stroke-miterlimit="22.9256"/>
<path fill-rule="evenodd" clip-rule="evenodd" d="M99.0496 40.2247C99.0496 35.6231 101.137 36.659 85.9766 36.659V79.4438H99.3466V50.0296C99.3466 47.6463 111.532 42.0321 113.2 49.8436C113.514 51.3154 113.314 71.0981 113.311 74.9872C113.307 80.6232 111.014 79.4438 126.087 79.4438C126.772 79.4438 126.978 79.2368 126.978 78.5524V52.7036C126.978 43.2038 124.498 35.7678 113.311 35.7678C109.676 35.7678 106.669 36.5724 103.795 37.8386L99.0496 40.2247Z" fill="#020204" stroke="black" stroke-width="0.755906" stroke-miterlimit="22.9256"/>
<path fill-rule="evenodd" clip-rule="evenodd" d="M238.393 40.5219V36.6591H225.617V79.4439C240.608 79.4439 239.046 80.4343 238.993 76.4779L238.988 49.138C240.66 48.6916 242.272 45.8699 247.009 45.8699C250.398 45.8699 252.952 47.5843 252.952 50.9209V79.4439H266.322V47.9498C266.322 35.3825 251.223 31.9306 238.393 40.5219Z" fill="#020204" stroke="black" stroke-width="0.755906" stroke-miterlimit="22.9256"/>
<path fill-rule="evenodd" clip-rule="evenodd" d="M198.58 44.9788C203.672 44.9788 206.008 46.7219 206.008 52.4067H191.746C191.746 48.7595 194.974 44.9788 198.58 44.9788ZM198.58 80.3351C202.123 80.3351 206.23 79.7925 209.086 78.9561C210.905 78.4228 211.884 78.1027 213.521 77.4496C214.908 76.8963 216.731 75.8517 217.892 75.5814C217.759 73.9808 215.057 69.4144 214.624 67.5591C211.436 68.3021 210.918 70.5304 202.145 70.5304C195.664 70.5304 191.449 67.5127 191.449 61.0229H219.675C219.675 53.7745 220.014 46.3345 214.703 41.0371C212.903 39.2415 211.501 38.2404 208.986 37.2464C198.258 33.0061 183.631 37.7115 179.22 48.7934C176.853 54.7386 176.639 60.8394 178.78 67.1557C181.671 75.6842 189.556 80.3351 198.58 80.3351Z" fill="#020204" stroke="black" stroke-width="0.755906" stroke-miterlimit="22.9256"/>
<path fill-rule="evenodd" clip-rule="evenodd" d="M317.425 66.3708C317.425 60.4369 324.405 60.1313 329.013 60.1313C329.013 66.7186 329.925 68.1885 326.743 70.0431C322.947 72.256 317.425 71.1247 317.425 66.3708ZM306.135 40.8188L309.403 48.8409C311.755 48.2932 315.835 44.9786 321.882 44.9786C328.102 44.9786 329.013 47.422 329.013 51.8119C325.901 52.5368 304.055 50.93 304.055 68.1534C304.055 80.0479 316.193 82.1377 324.263 79.1515C326.584 78.2928 327.743 77.4234 329.607 76.1754V79.4438H342.085V48.2468C342.085 39.2609 333.144 35.7678 324.556 35.7678C315.328 35.7678 308.643 40.2345 306.135 40.8188Z" fill="#020204" stroke="black" stroke-width="0.755906" stroke-miterlimit="22.9256"/>
<path fill-rule="evenodd" clip-rule="evenodd" d="M2.18863 47.95V50.921C2.18863 60.354 12.3224 61.6912 18.0536 62.9845C21.5875 63.782 23.8778 64.0787 23.8778 67.2622C23.8778 73.2629 10.696 70.1796 7.27328 69.0114C6.42024 68.72 5.55281 68.2356 4.5656 68.1536L1 76.7701L7.95551 79.0251C15.3468 80.6575 25.308 80.8986 31.6486 76.5185C36.7661 72.9827 37.2479 69.3062 37.2479 63.9941C37.2479 60.9357 35.665 58.0776 33.9529 56.2959L32.2038 54.7767C29.396 52.7596 24.7838 52.003 21.4264 51.2925C18.8586 50.749 15.5587 50.2786 15.5587 47.3559C15.5587 41.9625 28.2409 44.2486 31.3058 45.8701L34.5739 36.9569C31.6704 36.2803 27.9582 35.1964 24.4837 35.1628C20.5156 35.1238 17.1885 34.7899 13.7329 35.725C7.86818 37.312 2.18863 41.6457 2.18863 47.95Z" fill="#020204" stroke="black" stroke-width="0.755906" stroke-miterlimit="22.9256"/>
<path fill-rule="evenodd" clip-rule="evenodd" d="M277.021 27.4489V36.6591C272.916 36.6591 270.188 36.0417 270.188 37.5509V45.2759H277.021V68.4509C277.021 76.9665 284.151 80.3351 291.877 80.3351C293.34 80.3351 300.529 79.7125 301.335 79.3746C302.287 78.9755 302.092 79.2711 301.553 75.4126C301.354 73.9881 301.087 71.8703 301.087 70.5305C298.061 70.5305 290.391 72.7767 290.391 65.1825V45.2759H301.979V36.6591H290.391V23.8833C288.339 23.8833 279.78 26.806 277.021 27.4489Z" fill="#020204" stroke="black" stroke-width="0.755906" stroke-miterlimit="22.9256"/>
<path fill-rule="evenodd" clip-rule="evenodd" d="M163.227 25.666C163.227 30.9003 164.378 33.5007 164.415 35.1739C165.564 35.0783 165.052 35.0491 166.042 34.7206C166.76 34.4825 167.074 34.4271 167.716 34.3152C174.339 33.1613 183.673 36.2038 189.912 26.5033C193.617 20.7429 193.388 9.684 197.525 2.32375C197.971 1.52892 198.04 1.76663 198.286 0.70874C195.807 0.70874 188.414 2.363 185.747 3.02518C179.226 4.6447 170.299 8.27767 166.547 13.8343C164.462 16.9226 163.227 20.5875 163.227 25.666Z" fill="#020204" stroke="black" stroke-width="0.755906" stroke-miterlimit="22.9256"/>
</svg>
