<svg width="304" height="29" viewBox="0 0 304 29" fill="none" xmlns="http://www.w3.org/2000/svg">
<g clip-path="url(#clip0_133_4)">
<path fill-rule="evenodd" clip-rule="evenodd" d="M161.831 26.6662C159.828 28.36 157.482 29.1997 154.811 29.1997C148.578 29.1997 143.812 24.0727 143.812 17.9293C143.812 11.8109 148.587 6.60321 154.811 6.60321C157.503 6.60321 159.845 7.48737 161.831 9.22657V6.97634H166.517V28.8685H161.831V26.6662ZM155.157 11.2426C151.478 11.2426 148.498 14.2288 148.498 17.9015C148.498 21.6003 151.452 24.5603 155.157 24.5603C158.904 24.5603 161.758 21.5994 161.74 17.8765C161.723 14.2013 158.862 11.2426 155.157 11.2426Z" fill="white"/>
<path fill-rule="evenodd" clip-rule="evenodd" d="M86.828 17.929C86.828 21.0525 85.7051 23.7229 83.4827 25.9223C81.268 28.1133 78.5817 29.1994 75.4683 29.1994C72.3514 29.1994 69.6638 28.1156 67.4469 25.9223C65.2251 23.7242 64.1221 21.049 64.1221 17.929C64.1221 14.8109 65.2392 12.1479 67.4456 9.94371C69.6616 7.73091 72.3335 6.60291 75.4683 6.60291C78.5999 6.60291 81.2683 7.73507 83.4833 9.94371C85.691 12.1456 86.828 14.8103 86.828 17.929ZM82.1413 17.9015C82.1413 16.066 81.4669 14.5149 80.1713 13.2173C78.871 11.9149 77.3104 11.2426 75.4683 11.2426C73.622 11.2426 72.0608 11.9123 70.7579 13.2173C69.4636 14.513 68.8084 16.0695 68.8084 17.9015C68.8084 19.7396 69.4582 21.3047 70.7579 22.6068C72.0596 23.9098 73.6252 24.5603 75.4683 24.5603C77.3075 24.5603 78.8722 23.9072 80.1713 22.6068C81.4724 21.3037 82.1413 19.7434 82.1413 17.9015Z" fill="white"/>
<path fill-rule="evenodd" clip-rule="evenodd" d="M142.361 23.8391C141.299 25.4707 139.937 26.8099 138.233 27.7626C136.515 28.7229 134.658 29.1997 132.691 29.1997C129.577 29.1997 126.889 28.1155 124.676 25.9226C122.458 23.7245 121.359 21.0458 121.359 17.9293C121.359 14.8141 122.471 12.1482 124.675 9.94401C126.887 7.73121 129.559 6.60321 132.691 6.60321C134.666 6.60321 136.514 7.11457 138.234 8.08225C139.925 9.03489 141.295 10.3402 142.36 11.9632L142.507 12.1859L138.573 14.7664L138.426 14.5447C137.058 12.4755 135.208 11.2429 132.691 11.2429C130.851 11.2429 129.292 11.9152 127.995 13.217C126.703 14.5152 126.045 16.0691 126.045 17.9018C126.045 19.7399 126.697 21.304 127.995 22.607C129.29 23.9075 130.854 24.5607 132.691 24.5607C135.208 24.5607 137.058 23.3271 138.426 21.2589L138.573 21.0368L142.506 23.6173L142.361 23.8391Z" fill="white"/>
<path d="M117.935 6.97601H113.248V28.8682H117.935V6.97601Z" fill="white"/>
<path fill-rule="evenodd" clip-rule="evenodd" d="M94.4188 8.65475C96.0297 7.31107 97.9025 6.60291 100.047 6.60291C105.28 6.60291 108.951 11.2 108.951 16.2144V28.8682H104.264V16.1802C104.264 13.4912 102.001 11.2426 99.3029 11.2426C96.6143 11.2426 94.4188 13.5008 94.4188 16.1802V28.8682H89.7328V6.97603H94.4188V8.65475Z" fill="white"/>
<path fill-rule="evenodd" clip-rule="evenodd" d="M62.8466 23.8391C61.7846 25.4707 60.4233 26.8099 58.7183 27.7626C57.0008 28.7229 55.1439 29.1997 53.1769 29.1997C50.0635 29.1997 47.375 28.1155 45.1618 25.9226C42.9442 23.7245 41.8447 21.0458 41.8447 17.9293C41.8447 14.8141 42.9577 12.1482 45.1615 9.94401C47.3727 7.73121 50.0456 6.60321 53.1772 6.60321C55.152 6.60321 57.0005 7.11457 58.7199 8.08225C60.4108 9.03489 61.7817 10.3402 62.8466 11.9632L62.9924 12.1859L59.0592 14.7664L58.9121 14.5447C57.5445 12.4755 55.694 11.2429 53.1775 11.2429C51.337 11.2429 49.7777 11.9152 48.4815 13.217C47.1888 14.5152 46.5314 16.0691 46.5314 17.9018C46.5314 19.7399 47.1834 21.304 48.4815 22.607C49.7765 23.9075 51.3405 24.5607 53.1775 24.5607C55.694 24.5607 57.5442 23.3271 58.9121 21.2589L59.0592 21.0368L62.9921 23.6173L62.8466 23.8391Z" fill="white"/>
<path fill-rule="evenodd" clip-rule="evenodd" d="M34.2526 8.50147C35.9067 7.08451 37.6453 6.60291 39.7886 6.60291V11.2912C36.837 11.2912 34.2526 13.0852 34.2526 16.2148V28.8685H29.5659V6.97635H34.2526V8.50147Z" fill="white"/>
<path fill-rule="evenodd" clip-rule="evenodd" d="M13.7237 6.0371C9.29169 18.1337 8.87713 19.3513 5.37132 28.8681H0.464844L10.9208 0.0505371H16.5474L27.0597 28.8681H22.0492C18.0593 18.0003 18.757 19.8336 13.7237 6.0371Z" fill="white"/>
<path fill-rule="evenodd" clip-rule="evenodd" d="M24.7383 23.6842H10.6776L8.9729 19.0448H23.0336L24.7383 23.6842Z" fill="white"/>
<path d="M117.935 0.0546875H113.248V4.68988H117.935V0.0546875Z" fill="white"/>
<path d="M170.355 5.12159H170.991V3.96607H171.671L172.501 5.12159H173.262L172.36 3.86016C172.819 3.728 173.138 3.39264 173.138 2.85376C173.138 2.5456 173.04 2.30751 172.864 2.13951C172.634 1.91007 172.29 1.77823 171.848 1.77823H170.355L170.355 5.12159ZM173.802 1.38208C173.249 0.82976 172.484 0.487354 171.639 0.487354C170.795 0.487354 170.03 0.82976 169.478 1.38208L169.476 1.38271C168.924 1.93439 168.581 2.69919 168.581 3.54239C168.581 4.38591 168.924 5.15072 169.476 5.70208L169.478 5.70304C170.03 6.25472 170.795 6.59712 171.639 6.59712C172.484 6.59712 173.249 6.25472 173.802 5.70304L173.803 5.70208C174.355 5.15072 174.698 4.38623 174.698 3.54239C174.698 2.69919 174.355 1.93439 173.803 1.38271L173.802 1.38208ZM171.639 0.0515137C172.603 0.0515137 173.477 0.442556 174.11 1.07392L174.111 1.07487C174.743 1.70687 175.134 2.57983 175.134 3.54239C175.134 4.50527 174.743 5.37824 174.111 6.0096L174.11 6.01056C173.477 6.64256 172.603 7.03264 171.639 7.03264C170.675 7.03264 169.802 6.64256 169.169 6.01056L169.168 6.0096C168.536 5.37824 168.145 4.50527 168.145 3.54239C168.145 2.57983 168.536 1.70687 169.168 1.07487L169.169 1.07392C169.802 0.442556 170.675 0.0515137 171.639 0.0515137ZM170.991 3.40991V2.35104H171.821C172.236 2.35104 172.484 2.53632 172.484 2.87168C172.484 3.20704 172.237 3.40991 171.821 3.40991H170.991Z" fill="white"/>
<path d="M192.705 0.0499268H191.988V28.8682H192.705V0.0499268Z" fill="white"/>
<path d="M206.772 14.1008H177.921V14.8176H206.772V14.1008Z" fill="white"/>
<path d="M275.295 23.5037C275.295 23.8531 275.447 24.128 275.749 24.3277C276.053 24.5255 276.417 24.6819 276.846 24.7952C277.276 24.9085 277.708 25.0215 278.141 25.1351C278.576 25.2512 278.94 25.4579 279.237 25.7594C279.534 26.0602 279.681 26.4627 279.681 26.9664C279.681 27.5639 279.442 28.0554 278.964 28.441C278.486 28.8266 277.862 29.0199 277.09 29.0199C276.395 29.0199 275.809 28.873 275.331 28.5786C274.853 28.2848 274.523 27.897 274.34 27.4147L274.962 27.0531C275.097 27.449 275.351 27.7594 275.722 27.9859C276.094 28.2122 276.549 28.3258 277.09 28.3258C277.63 28.3258 278.076 28.2077 278.429 27.9712C278.781 27.7354 278.957 27.4 278.957 26.9664C278.957 26.6096 278.807 26.3258 278.508 26.1155C278.209 25.9037 277.845 25.7399 277.416 25.6266C276.986 25.5159 276.555 25.4 276.12 25.2871C275.686 25.1738 275.319 24.9712 275.02 24.6823C274.721 24.3933 274.571 24.0077 274.571 23.5258C274.571 22.9479 274.801 22.4608 275.259 22.0653C275.718 21.6704 276.309 21.4727 277.032 21.4727C277.611 21.4727 278.115 21.6032 278.545 21.8627C278.974 22.1232 279.29 22.4749 279.493 22.9184L278.885 23.2653C278.741 22.9091 278.499 22.6362 278.162 22.4487C277.824 22.2608 277.447 22.1664 277.033 22.1664C276.54 22.1664 276.128 22.2871 275.795 22.528C275.462 22.7712 275.295 23.0941 275.295 23.5037ZM273.5 22.3399H271.344V27.0387C271.344 27.4528 271.421 27.752 271.575 27.9351C271.73 28.1181 271.966 28.2218 272.285 28.2458C272.603 28.2701 273.008 28.2576 273.5 28.2096V28.8602C272.526 29.0048 271.8 28.9373 271.322 28.6576C270.844 28.3779 270.605 27.8384 270.605 27.0387V22.3399H269.013V21.6314H270.605V19.824L271.344 19.6077V21.6314H273.5V22.3399H273.5ZM264.989 29.0195C263.9 29.0195 262.992 28.6579 262.269 27.9354C261.545 27.2122 261.183 26.3159 261.183 25.2458C261.183 24.1763 261.545 23.28 262.269 22.5568C262.992 21.8343 263.899 21.4727 264.989 21.4727C265.694 21.4727 266.331 21.6387 266.9 21.9719C267.47 22.3043 267.884 22.7546 268.145 23.3232L267.552 23.6701C267.34 23.2071 267.004 22.841 266.546 22.5712C266.087 22.3015 265.569 22.1664 264.989 22.1664C264.121 22.1664 263.393 22.4634 262.804 23.0557C262.215 23.6483 261.921 24.3786 261.921 25.2455C261.921 26.1133 262.215 26.8435 262.804 27.4359C263.393 28.0288 264.121 28.3251 264.989 28.3251C265.569 28.3251 266.087 28.1901 266.546 27.9203C267.004 27.6506 267.353 27.2845 267.595 26.8218L268.203 27.1834C267.914 27.7421 267.481 28.1879 266.907 28.5203C266.333 28.8531 265.694 29.0195 264.989 29.0195ZM256.406 22.1661C255.586 22.1661 254.902 22.4218 254.352 22.9328C253.802 23.4435 253.488 24.1037 253.41 24.9133H259.229C259.152 24.0557 258.845 23.3834 258.31 22.8963C257.775 22.4096 257.14 22.1661 256.406 22.1661ZM256.406 21.4723C257.468 21.4723 258.33 21.8483 258.99 22.6003C259.652 23.3514 259.982 24.2432 259.982 25.2749C259.982 25.3133 259.98 25.3715 259.975 25.448C259.97 25.5251 259.968 25.5834 259.968 25.6218H253.411C253.498 26.4314 253.824 27.0845 254.388 27.5805C254.952 28.0775 255.649 28.3255 256.479 28.3255C257.058 28.3255 257.565 28.2051 258 27.9639C258.434 27.7226 258.762 27.4051 258.984 27.0096L259.621 27.3856C259.321 27.8864 258.897 28.2842 258.347 28.5779C257.797 28.8723 257.17 29.0192 256.465 29.0192C255.356 29.0192 254.444 28.6647 253.73 27.9565C253.016 27.248 252.659 26.344 252.659 25.2451C252.659 24.1655 253.008 23.2669 253.708 22.5491C254.407 21.8314 255.306 21.4723 256.406 21.4723ZM251.847 22.3399H249.691V27.0387C249.691 27.4528 249.767 27.752 249.922 27.9351C250.077 28.1181 250.313 28.2218 250.631 28.2458C250.95 28.2701 251.355 28.2576 251.847 28.2096V28.8602C250.873 29.0048 250.146 28.9373 249.669 28.6576C249.191 28.3779 248.952 27.8384 248.952 27.0387V22.3399H247.36V21.6314H248.952V19.824L249.691 19.6077V21.6314H251.847V22.3399ZM245.189 28.8602V21.6314H245.912V28.8602H245.189ZM245.956 19.7159C245.84 19.8266 245.705 19.8819 245.55 19.8819C245.396 19.8819 245.261 19.8266 245.146 19.7159C245.03 19.6045 244.972 19.4679 244.972 19.304C244.972 19.1498 245.03 19.0173 245.146 18.9062C245.261 18.7955 245.396 18.7402 245.55 18.7402C245.705 18.7402 245.84 18.7958 245.956 18.9062C246.072 19.0173 246.13 19.1498 246.13 19.304C246.13 19.4679 246.072 19.6045 245.956 19.7159ZM240.34 21.4723C241.199 21.4723 241.882 21.7347 242.389 22.2605C242.895 22.7856 243.148 23.4867 243.148 24.3639V28.8602H242.41V24.3639C242.41 23.6893 242.225 23.1546 241.853 22.7591C241.481 22.3642 240.958 22.1664 240.282 22.1664C239.54 22.1664 238.932 22.4122 238.459 22.9037C237.986 23.3959 237.749 24.1091 237.749 25.0439V28.8605H237.026V18.7402H237.749V23.0048C238.271 21.9831 239.134 21.4723 240.34 21.4723ZM232.22 29.0195C231.13 29.0195 230.223 28.6579 229.499 27.9354C228.775 27.2122 228.414 26.3159 228.414 25.2458C228.414 24.1763 228.775 23.28 229.499 22.5568C230.223 21.8343 231.13 21.4727 232.22 21.4727C232.925 21.4727 233.561 21.6387 234.131 21.9719C234.7 22.3043 235.115 22.7546 235.375 23.3232L234.782 23.6701C234.57 23.2071 234.235 22.841 233.776 22.5712C233.318 22.3015 232.799 22.1664 232.22 22.1664C231.352 22.1664 230.623 22.4634 230.035 23.0557C229.446 23.6483 229.152 24.3786 229.152 25.2455C229.152 26.1133 229.446 26.8435 230.035 27.4359C230.623 28.0288 231.352 28.3251 232.22 28.3251C232.8 28.3251 233.318 28.1901 233.776 27.9203C234.235 27.6506 234.584 27.2845 234.826 26.8218L235.434 27.1834C235.144 27.7421 234.712 28.1879 234.138 28.5203C233.564 28.8531 232.925 29.0195 232.22 29.0195ZM225.461 23.0483C225.895 22.0362 226.701 21.5299 227.878 21.5299V22.2237C227.193 22.2237 226.619 22.4432 226.155 22.8813C225.693 23.32 225.461 23.9731 225.461 24.8407V28.8595H224.737V21.6307H225.461L225.461 23.0483ZM216.813 25.5639H221.329L219.069 19.6845L216.813 25.5639ZM222.595 28.8602L221.606 26.2871H216.536L215.547 28.8602H214.737L218.674 18.7399H219.484L223.406 28.8602H222.595ZM299.15 4.66466C299.15 5.01378 299.301 5.28865 299.603 5.48833C299.907 5.68609 300.271 5.8429 300.701 5.95586C301.13 6.06946 301.562 6.18242 301.995 6.29602C302.43 6.41186 302.794 6.6189 303.091 6.92002C303.388 7.22082 303.535 7.62337 303.535 8.12705C303.535 8.72417 303.296 9.2157 302.818 9.6013C302.34 9.9869 301.716 10.1802 300.944 10.1802C300.249 10.1802 299.663 10.0333 299.186 9.73922C298.708 9.44546 298.378 9.05729 298.194 8.57537L298.816 8.21409C298.952 8.60961 299.205 8.92033 299.576 9.14657C299.948 9.37313 300.404 9.48674 300.944 9.48674C301.484 9.48674 301.93 9.36834 302.283 9.13218C302.635 8.89634 302.811 8.5613 302.811 8.1277C302.811 7.7709 302.662 7.48706 302.362 7.27714C302.063 7.06498 301.699 6.90145 301.27 6.78785C300.841 6.67713 300.409 6.56161 299.974 6.44833C299.54 6.33473 299.174 6.1325 298.874 5.84354C298.576 5.55426 298.426 5.16865 298.426 4.68705C298.426 4.10881 298.655 3.62209 299.113 3.22657C299.572 2.83169 300.163 2.63394 300.887 2.63394C301.465 2.63394 301.97 2.7645 302.399 3.02434C302.828 3.2845 303.145 3.6365 303.347 4.0797L302.739 4.42657C302.595 4.07041 302.353 3.79777 302.015 3.60993C301.678 3.42209 301.301 3.32802 300.887 3.32802C300.395 3.32802 299.982 3.44866 299.649 3.68962C299.316 3.93218 299.15 4.25474 299.15 4.66466ZM295.067 4.2093C295.502 3.19714 296.308 2.6909 297.485 2.6909V3.38497C296.799 3.38497 296.226 3.60418 295.762 4.04258C295.299 4.48162 295.067 5.13442 295.067 6.00226V10.0211H294.344V2.79233H295.067L295.067 4.2093ZM289.075 3.32705C288.255 3.32705 287.57 3.58242 287.02 4.09346C286.47 4.60418 286.156 5.26434 286.079 6.07394H291.898C291.82 5.21634 291.514 4.54401 290.979 4.05697C290.443 3.57025 289.809 3.32705 289.075 3.32705ZM289.075 2.63298C290.136 2.63298 290.998 3.0093 291.659 3.76098C292.32 4.51234 292.65 5.40386 292.65 6.43554C292.65 6.47394 292.648 6.53217 292.643 6.60865C292.638 6.68577 292.636 6.74369 292.636 6.78241H286.079C286.166 7.59233 286.492 8.24545 287.056 8.74145C287.62 9.23809 288.318 9.48609 289.148 9.48609C289.727 9.48609 290.233 9.36545 290.668 9.12449C291.102 8.88353 291.43 8.56577 291.652 8.17025L292.289 8.54657C291.989 9.04737 291.565 9.44514 291.015 9.7389C290.465 10.033 289.838 10.1799 289.133 10.1799C288.024 10.1799 287.112 9.8253 286.398 9.11714C285.684 8.40866 285.327 7.50465 285.327 6.40577C285.327 5.32641 285.677 4.42786 286.376 3.70978C287.075 2.99234 287.975 2.63298 289.075 2.63298ZM280.97 2.63298C281.828 2.63298 282.511 2.89569 283.018 3.42113C283.525 3.94657 283.778 4.64769 283.778 5.52449V10.0208H283.04V5.52481C283.04 4.84993 282.854 4.31522 282.482 3.9197C282.111 3.52482 281.588 3.32705 280.912 3.32705C280.169 3.32705 279.561 3.57249 279.088 4.06401C278.615 4.55585 278.379 5.26945 278.379 6.20449V10.0208H277.656V2.79201H278.379V4.16514C278.9 3.1437 279.764 2.63298 280.97 2.63298ZM275.918 3.50081H273.762V8.1997C273.762 8.61378 273.839 8.91265 273.993 9.09569C274.148 9.27905 274.384 9.38242 274.702 9.40674C275.021 9.43074 275.426 9.41826 275.918 9.37058V10.0211C274.944 10.1658 274.217 10.0983 273.74 9.81857C273.262 9.53889 273.023 8.9997 273.023 8.20002V3.50113H271.431V2.79266H273.023V0.985293L273.762 0.768652V2.79266H275.918L275.918 3.50081ZM268.232 4.2093C268.666 3.19714 269.472 2.6909 270.65 2.6909V3.38497C269.965 3.38497 269.39 3.60418 268.927 4.04258C268.465 4.48162 268.232 5.13442 268.232 6.00226V10.0211H267.509V2.79233H268.232V4.2093ZM259.309 8.58978C259.903 9.18722 260.629 9.48609 261.487 9.48609C262.346 9.48609 263.07 9.18722 263.659 8.58978C264.248 7.99202 264.541 7.26465 264.541 6.40609C264.541 5.54849 264.247 4.82114 263.659 4.22338C263.07 3.62594 262.346 3.32705 261.487 3.32705C260.629 3.32705 259.903 3.62594 259.309 4.22338C258.715 4.82114 258.419 5.54881 258.419 6.40609C258.419 7.26465 258.715 7.99202 259.309 8.58978ZM264.541 2.79233H265.279V10.0211H264.541V8.38754C264.232 8.94626 263.808 9.38529 263.268 9.70273C262.727 10.0211 262.114 10.1802 261.429 10.1802C260.397 10.1802 259.514 9.81633 258.78 9.08833C258.047 8.36065 257.681 7.46721 257.681 6.40609C257.681 5.34625 258.047 4.45281 258.78 3.72481C259.514 2.99713 260.397 2.63298 261.429 2.63298C262.114 2.63298 262.727 2.79233 263.268 3.11041C263.808 3.42817 264.232 3.8669 264.541 4.42562V2.79233ZM253.845 5.4381C254.54 5.4381 255.112 5.21153 255.561 4.75873C256.009 4.30529 256.234 3.73185 256.234 3.03777C256.234 2.33441 256.009 1.75618 255.561 1.30306C255.112 0.850257 254.54 0.623057 253.845 0.623057H251.167V5.43777H253.845V5.4381ZM253.845 -0.0991895C254.752 -0.0991895 255.505 0.200019 256.103 0.797139C256.702 1.39426 257.001 2.14145 257.001 3.03777C257.001 3.93409 256.701 4.67906 256.103 5.2717C255.505 5.86434 254.752 6.16033 253.845 6.16033H251.167V10.0208H250.4V-0.099502L253.845 -0.0991895ZM239.978 9.44289C241.031 9.44289 241.873 9.0813 242.509 8.3581L239.267 4.9581C238.667 5.17986 238.218 5.50273 237.926 5.93153C237.634 6.35809 237.489 6.82337 237.489 7.32161C237.489 7.98689 237.714 8.50529 238.162 8.88065C238.611 9.25441 239.217 9.44289 239.978 9.44289ZM244.886 9.74657L244.205 10.137L243.037 8.91298C242.294 9.75842 241.284 10.1802 240.008 10.1802C239.004 10.1802 238.203 9.92226 237.605 9.40674C237.006 8.89122 236.708 8.1997 236.708 7.33186C236.708 6.69602 236.881 6.11489 237.228 5.58945C237.575 5.06465 238.073 4.66209 238.719 4.38241C238.179 3.75585 237.909 3.09601 237.909 2.40193C237.909 1.60225 238.188 0.958732 238.748 0.472012C239.308 -0.0150283 239.983 -0.258223 240.775 -0.258223C241.421 -0.258223 242 -0.0899024 242.511 0.248018C243.023 0.585618 243.385 1.05282 243.597 1.65058L242.96 2.02625C242.806 1.55425 242.533 1.17858 242.142 0.898896C241.752 0.619216 241.301 0.479375 240.789 0.479375C240.181 0.479375 239.68 0.657614 239.284 1.01441C238.888 1.37313 238.69 1.82658 238.69 2.37602C238.69 2.7517 238.782 3.09409 238.963 3.39745C239.146 3.70113 239.419 4.04033 239.786 4.41665L242.955 7.72962C243.266 7.15842 243.472 6.4861 243.568 5.71266L244.249 6.10338C244.114 6.94658 243.863 7.6765 243.496 8.29346L244.886 9.74657ZM227.907 10.1802C226.971 10.1802 226.178 9.96545 225.526 9.53665C224.875 9.10785 224.433 8.52737 224.202 7.79489L224.868 7.40418C225.051 8.03074 225.401 8.52738 225.917 8.89378C226.433 9.25986 227.096 9.44289 227.907 9.44289C228.727 9.44289 229.357 9.25441 229.796 8.87873C230.235 8.50241 230.455 8.01633 230.455 7.41825C230.455 6.85953 230.242 6.43074 229.817 6.13186C229.393 5.83298 228.732 5.53698 227.835 5.2477C227.509 5.1293 227.27 5.0429 227.12 4.98722C226.971 4.93378 226.756 4.85441 226.477 4.75329C226.194 4.64961 225.987 4.55586 225.852 4.46882C225.717 4.3821 225.555 4.26625 225.367 4.12193C225.179 3.97761 225.041 3.83041 224.954 3.68161C224.868 3.53185 224.79 3.35393 224.723 3.14625C224.655 2.93889 224.622 2.71009 224.622 2.45985C224.622 1.64001 224.913 0.982416 225.497 0.486416C226.081 -0.010224 226.812 -0.258545 227.69 -0.258545C228.481 -0.258545 229.157 -0.0607859 229.716 0.334414C230.276 0.729934 230.686 1.24034 230.947 1.86722L230.296 2.22817C229.813 1.06209 228.945 0.479053 227.69 0.479053C226.995 0.479053 226.441 0.662094 226.025 1.02817C225.611 1.39457 225.403 1.86209 225.403 2.43073C225.403 2.98017 225.596 3.38977 225.982 3.65697C226.368 3.92737 227 4.20642 227.878 4.49602C228.43 4.70338 228.867 4.86466 229.183 4.98306C229.502 5.10306 229.839 5.27425 230.201 5.50081C230.563 5.72705 230.826 5.99714 230.99 6.31298C231.154 6.62594 231.236 6.9901 231.236 7.40418C231.236 8.24322 230.932 8.91521 230.324 9.42145C229.716 9.92705 228.911 10.1802 227.907 10.1802ZM216.886 6.72449H221.401L219.141 0.844814L216.886 6.72449ZM222.668 10.0211L221.679 7.44802H216.608L215.619 10.0211H214.809L218.746 -0.0991895H219.556L223.478 10.0211H222.668Z" fill="white"/>
</g>
<defs>
<clipPath id="clip0_133_4">
<rect width="304" height="29" fill="white"/>
</clipPath>
</defs>
</svg>
