<svg width="59" height="59" viewBox="0 0 59 59" fill="none" xmlns="http://www.w3.org/2000/svg">
<path d="M44.3253 42.1943L16.782 14.6509C16.3914 14.2604 15.7583 14.2604 15.3678 14.6509C14.9772 15.0414 14.9772 15.6746 15.3678 16.0651L42.9111 43.6085C43.3016 43.999 43.9348 43.999 44.3253 43.6085C44.7158 43.2179 44.7158 42.5848 44.3253 42.1943Z" fill="white"/>
<path d="M42.929 15.328L15.3519 42.9052C14.9614 43.2957 14.9614 43.9289 15.3519 44.3194C15.7424 44.7099 16.3756 44.7099 16.7661 44.3194L44.3433 16.7422C44.7338 16.3517 44.7338 15.7186 44.3433 15.328C43.9527 14.9375 43.3196 14.9375 42.929 15.328Z" fill="white"/>
</svg>
