<svg width="138" height="45" viewBox="0 0 138 45" fill="none" xmlns="http://www.w3.org/2000/svg">
<path d="M8.38642 25.4027C6.66352 25.4027 5.03771 25.0994 3.5059 24.4898C1.97409 23.8816 0.805972 23.1135 0 22.1837L0.604091 21.3881C1.36383 22.2295 2.44257 22.9428 3.84031 23.528C5.23805 24.1148 6.74212 24.4075 8.35252 24.4075C9.9845 24.4075 11.3268 24.1865 12.3778 23.7445C13.4288 23.3025 14.2054 22.7111 14.7094 21.9688C15.2118 21.2281 15.4645 20.4051 15.4645 19.4967C15.4645 18.4344 15.1964 17.5839 14.6601 16.9423C14.1238 16.3006 13.4133 15.7931 12.5303 15.4166C11.6473 15.0401 10.6857 14.7307 9.64547 14.4884C8.60525 14.2445 7.55426 13.9854 6.49247 13.708C5.43068 13.4322 4.45673 13.0771 3.57371 12.6457C2.69068 12.2144 1.98642 11.6169 1.46092 10.8549C0.935418 10.0913 0.671898 9.10212 0.671898 7.88586C0.671898 6.8464 0.950829 5.87401 1.51023 4.96715C2.06964 4.06029 2.94188 3.32566 4.12695 2.76173C5.31202 2.1978 6.83304 1.91583 8.68847 1.91583C9.96293 1.91583 11.2204 2.1094 12.4625 2.49653C13.7031 2.88366 14.7602 3.39729 15.6325 4.03895L15.1301 4.93514C14.1916 4.24928 13.1514 3.74022 12.011 3.40948C10.8706 3.07722 9.77491 2.91109 8.72391 2.91109C7.1582 2.91109 5.85601 3.13819 4.8158 3.59086C3.77559 4.04505 3.00968 4.64708 2.51808 5.39848C2.02649 6.14987 1.77992 6.98053 1.77992 7.88586C1.77992 8.96952 2.04806 9.83218 2.58435 10.4738C3.12064 11.1155 3.83106 11.6246 4.71409 11.9995C5.59711 12.376 6.56489 12.6854 7.61589 12.9277C8.66689 13.1715 9.7179 13.4307 10.7689 13.708C11.8199 13.9854 12.7861 14.3436 13.6707 14.7856C14.5537 15.2276 15.258 15.8205 15.7835 16.5612C16.309 17.302 16.5725 18.2698 16.5725 19.4647C16.5725 20.5042 16.2874 21.4781 15.7172 22.3834C15.147 23.2903 14.2517 24.0203 13.0342 24.5736C11.8137 25.1253 10.265 25.4027 8.38642 25.4027Z" fill="#4682B4"/>
<path d="M29.418 25.2686V2.04694H37.5686C39.5134 2.04694 41.1855 2.35633 42.5832 2.97513C43.981 3.59393 45.0489 4.47335 45.7871 5.61188C46.5252 6.75193 46.8935 8.12822 46.8935 9.74228C46.8935 11.3563 46.5252 12.7402 45.7871 13.8894C45.0489 15.0402 43.981 15.9242 42.5832 16.543C41.1855 17.1618 39.5134 17.4712 37.5686 17.4712H30.0544L30.5583 16.9408V25.2671H29.418V25.2686ZM30.5599 16.9423L30.056 16.4439H37.6364C40.2747 16.4439 42.2935 15.8586 43.6912 14.685C45.089 13.513 45.7871 11.8654 45.7871 9.74228C45.7871 7.61916 45.0874 5.97615 43.6912 4.81628C42.2935 3.65489 40.2747 3.0742 37.6364 3.0742H30.056L30.5599 2.5438V16.9423Z" fill="#4682B4"/>
<path d="M88.5547 25.2686V2.04694H96.7053C98.6501 2.04694 100.322 2.35633 101.72 2.97513C103.118 3.59393 104.186 4.47335 104.924 5.61188C105.662 6.75193 106.03 8.12822 106.03 9.74228C106.03 11.3563 105.662 12.7402 104.924 13.8894C104.186 15.0402 103.118 15.9242 101.72 16.543C100.322 17.1618 98.6501 17.4712 96.7053 17.4712H89.1911L89.6935 16.9408V25.2671H88.5547V25.2686ZM89.6951 16.9423L89.1927 16.4439H96.7731C99.4114 16.4439 101.43 15.8586 102.828 14.685C104.226 13.513 104.924 11.8654 104.924 9.74228C104.924 7.61916 104.224 5.97615 102.828 4.81628C101.43 3.65489 99.4114 3.0742 96.7731 3.0742H89.1927L89.6951 2.5438V16.9423ZM105.058 25.2686L98.9522 16.8417H100.261L106.399 25.2686H105.058Z" fill="#4682B4"/>
<path d="M119.348 25.2686V2.04694H120.488V25.2701H119.348V25.2686ZM120.322 19.2971L120.288 17.8705L135.852 2.04541H137.261L126.762 12.7616L126.091 13.4246L120.322 19.2971ZM136.591 25.2686L125.689 12.9933L126.461 12.2297L138.001 25.2671H136.591V25.2686Z" fill="#4682B4"/>
<path d="M33.4191 45C32.8797 45 32.3727 44.9452 31.8996 44.8354C31.4265 44.7257 31.0536 44.6038 30.7792 44.4696V42.659H30.9041C31.1121 43.2869 31.445 43.7883 31.9058 44.1633C32.3665 44.5382 32.8828 44.7242 33.4561 44.7242C34.0124 44.7242 34.4577 44.587 34.7952 44.3111C35.1312 44.0353 35.2992 43.6832 35.2992 43.2518C35.2992 42.9409 35.2052 42.6818 35.0187 42.473C34.8322 42.2642 34.5934 42.095 34.3021 41.9655C34.0108 41.8344 33.6595 41.7125 33.2434 41.5997C32.6794 41.4366 32.2232 41.2781 31.8734 41.1226C31.5251 40.9672 31.24 40.7523 31.0212 40.4764C30.8008 40.2005 30.6914 39.8485 30.6914 39.4171C30.6914 39.0224 30.8054 38.6673 31.0335 38.3533C31.2616 38.0393 31.5852 37.7939 32.0044 37.6171C32.4236 37.4403 32.9074 37.3519 33.4545 37.3519C33.886 37.3519 34.316 37.4007 34.7428 37.4998C35.1697 37.5988 35.5134 37.704 35.7707 37.8168V39.4796H35.6459C35.4471 38.9142 35.1451 38.4646 34.7428 38.1292C34.3406 37.7939 33.8521 37.6263 33.2804 37.6263C32.9645 37.6263 32.6763 37.6811 32.4143 37.7909C32.1523 37.9006 31.9427 38.0591 31.7856 38.2679C31.6284 38.4767 31.5498 38.7221 31.5498 39.0041C31.5498 39.2861 31.6438 39.5223 31.8302 39.7128C32.0167 39.9033 32.2571 40.0618 32.553 40.1899C32.8473 40.3164 33.2234 40.4474 33.6795 40.5816C34.2358 40.7446 34.6858 40.9032 35.031 41.0586C35.3747 41.2141 35.6675 41.4366 35.9094 41.7262C36.1498 42.0158 36.27 42.3892 36.27 42.8479C36.27 43.264 36.1467 43.6375 35.9033 43.9651C35.6582 44.2928 35.3207 44.5474 34.8892 44.7272C34.4562 44.9101 33.9677 45 33.4191 45Z" fill="white"/>
<path d="M46.0938 44.8309C46.2017 44.7044 46.2926 44.5443 46.3681 44.3538C46.4421 44.1633 46.4806 43.9697 46.4806 43.7716V37.6933H45.6839C45.2524 37.6933 44.8887 37.7574 44.5944 37.8839C44.3 38.0104 44.055 38.1856 43.8593 38.4082C43.6636 38.6307 43.4802 38.9111 43.3045 39.2495H43.1797L43.454 37.4708H50.7L50.962 39.2495H50.8372C50.6708 38.9111 50.4889 38.6307 50.2901 38.4082C50.0913 38.1856 49.8432 38.0104 49.5489 37.8839C49.2545 37.7574 48.8955 37.6933 48.4717 37.6933H47.6626V43.7716C47.6626 43.9697 47.6996 44.1633 47.7751 44.3538C47.8491 44.5443 47.9416 44.7028 48.0494 44.8309V44.8842H46.0954V44.8309H46.0938Z" fill="white"/>
<path d="M61.8191 45C60.7727 45 59.9529 44.7897 59.3596 44.3706C58.7663 43.9514 58.4688 43.3555 58.4688 42.5858V38.5834C58.4688 38.3853 58.4319 38.1917 58.3563 38.0012C58.2824 37.8107 58.1899 37.6522 58.082 37.5242V37.4708H60.0361V37.5242C59.9282 37.6507 59.8373 37.8107 59.7618 38.0012C59.6878 38.1917 59.6493 38.3868 59.6493 38.5834V42.5858C59.6493 43.2488 59.8712 43.7624 60.315 44.1267C60.7588 44.491 61.346 44.6723 62.0765 44.6723C62.8069 44.6723 63.3941 44.491 63.8379 44.1267C64.2817 43.764 64.5036 43.2503 64.5036 42.5858V38.5834C64.5036 38.3929 64.4574 38.2161 64.3665 38.0546C64.2755 37.893 64.1384 37.7162 63.955 37.5257V37.4724H65.3743V37.5257C65.1909 37.7162 65.0553 37.893 64.9628 38.0546C64.8719 38.2176 64.8257 38.3929 64.8257 38.5834V42.5858C64.8257 43.3479 64.556 43.9408 64.0166 44.3645C63.4819 44.7882 62.7483 45 61.8191 45Z" fill="white"/>
<path d="M73.2969 44.8309C73.4047 44.7044 73.4957 44.5443 73.5712 44.3538C73.6467 44.1633 73.6837 43.9697 73.6837 43.7716V38.5834C73.6837 38.3853 73.6467 38.1917 73.5712 38.0012C73.4972 37.8107 73.4047 37.6522 73.2969 37.5242V37.4708H76.4591C77.2728 37.4708 78.0156 37.5943 78.6875 37.8412C79.3594 38.0881 79.9018 38.4874 80.3118 39.0376C80.7232 39.5878 80.9282 40.3011 80.9282 41.176C80.9282 42.0508 80.7232 42.7641 80.3118 43.3143C79.9003 43.8646 79.3594 44.2639 78.6875 44.5108C78.0156 44.7577 77.2728 44.8812 76.4591 44.8812H73.2969V44.8309ZM76.174 44.651C76.8382 44.651 77.4269 44.5352 77.9416 44.302C78.4563 44.0688 78.8647 43.6923 79.1683 43.1741C79.4719 42.6559 79.6229 41.9899 79.6229 41.1775C79.6229 40.3652 79.4719 39.7022 79.1683 39.187C78.8647 38.6718 78.4563 38.2954 77.9416 38.0591C77.4269 37.8229 76.8382 37.704 76.174 37.704C75.7764 37.704 75.3403 37.7574 74.8672 37.8625V44.491C75.3388 44.5977 75.7749 44.651 76.174 44.651Z" fill="white"/>
<path d="M88.7969 44.8309C88.9047 44.7044 88.9957 44.5443 89.0712 44.3538C89.1467 44.1633 89.1837 43.9697 89.1837 43.7716V38.5834C89.1837 38.3853 89.1467 38.1917 89.0712 38.0012C88.9972 37.8107 88.9047 37.6522 88.7969 37.5242V37.4708H90.7139V37.5242C90.6061 37.6507 90.5152 37.8107 90.4396 38.0012C90.3641 38.1917 90.3271 38.3868 90.3271 38.5834V43.7716C90.3271 43.9697 90.3641 44.1633 90.4396 44.3538C90.5136 44.5443 90.6061 44.7028 90.7139 44.8309V44.8842H88.7969V44.8309Z" fill="white"/>
<path d="M102.607 45C101.81 45 101.109 44.8415 100.503 44.523C99.8974 44.206 99.4258 43.7563 99.0899 43.1787C98.7539 42.601 98.5859 41.9335 98.5859 41.1775C98.5859 40.4215 98.7539 39.7555 99.0899 39.1763C99.4258 38.5972 99.8974 38.1491 100.503 37.832C101.109 37.515 101.81 37.355 102.607 37.355C103.403 37.355 104.104 37.5135 104.71 37.832C105.316 38.1491 105.787 38.5987 106.123 39.1763C106.459 39.7555 106.627 40.4231 106.627 41.1775C106.627 41.9335 106.459 42.5995 106.123 43.1787C105.787 43.7579 105.316 44.206 104.71 44.523C104.104 44.8415 103.403 45 102.607 45ZM102.607 44.7668C103.146 44.7668 103.621 44.6144 104.032 44.3111C104.443 44.0078 104.761 43.5841 104.984 43.04C105.208 42.4959 105.32 41.8756 105.32 41.176C105.32 40.4764 105.208 39.8561 104.984 39.312C104.761 38.7678 104.443 38.3457 104.032 38.0408C103.621 37.7375 103.146 37.5851 102.607 37.5851C102.067 37.5851 101.593 37.7375 101.181 38.0408C100.77 38.3441 100.452 38.7678 100.229 39.312C100.005 39.8561 99.8927 40.4764 99.8927 41.176C99.8927 41.8756 100.005 42.4959 100.229 43.04C100.452 43.5841 100.77 44.0078 101.181 44.3111C101.591 44.6159 102.066 44.7668 102.607 44.7668Z" fill="white"/>
<path d="M76.0822 25.8066H59.3865L59.8287 24.8555C62.578 19.2894 66.1609 15.8342 69.4896 13.6882L68.9117 12.4583C65.7926 13.516 63.1574 15.0097 61.151 16.3859C56.9994 19.233 54.566 22.2066 54.5429 22.2356L52.293 24.8296L63.9588 0L69.3463 11.4676C72.0755 10.6186 75.1422 10.1096 78.4632 10.2666L82.2372 10.4449L78.5125 11.0667C78.4878 11.0713 78.4478 11.0774 78.3938 11.085C77.0161 11.2801 73.9587 11.9263 70.5329 13.9915L76.0822 25.8066ZM60.6671 24.9988H74.8016L69.8364 14.429C66.6818 16.4835 63.2977 19.7634 60.6671 24.9988ZM63.9588 1.91736L55.4229 20.0835C56.5694 18.9373 58.3432 17.3309 60.6624 15.7367C62.7059 14.3329 65.3889 12.8088 68.5634 11.7221L63.9588 1.91736ZM69.693 12.2068L70.1862 13.2569C71.7889 12.2997 73.3145 11.6398 74.6337 11.1871C72.8876 11.3731 71.2372 11.7328 69.693 12.2068Z" fill="#4682B4"/>
<path d="M81.5096 10.5032C82.2665 7.66679 82.7721 5.33921 82.6388 5.30441C82.5055 5.26961 81.7838 7.54077 81.0268 10.3772C80.2699 13.2136 79.7643 15.5412 79.8976 15.576C80.031 15.6108 80.7526 13.3396 81.5096 10.5032Z" fill="#4682B4"/>
<path d="M86.4611 11.7957C86.4962 11.6639 84.1999 10.9501 81.332 10.2015C78.464 9.45284 76.1106 8.95284 76.0754 9.08469C76.0402 9.21654 78.3366 9.93031 81.2045 10.6789C84.0724 11.4276 86.4259 11.9276 86.4611 11.7957Z" fill="#4682B4"/>
</svg>
